<svg width="244" height="37" viewBox="0 0 244 37" fill="none" xmlns="http://www.w3.org/2000/svg">
<path d="M138.514 20.615C139.359 19.5095 140.311 18.9219 140.323 18.9145L141 18.5056L140.324 18.0951C140.312 18.0886 139.507 17.5911 138.72 16.6528C139.926 15.8678 140.723 14.5074 140.723 12.961C140.723 10.5296 138.752 8.55787 136.321 8.55787C135.975 8.55787 135.639 8.59804 135.316 8.6734C135.133 7.29337 135.391 6.20507 135.394 6.19117L135.584 5.4233L134.815 5.61095C134.801 5.61424 133.881 5.83305 132.661 5.72569C132.958 4.3178 132.56 2.79189 131.467 1.6987C129.748 -0.0206015 126.96 -0.0206015 125.24 1.6987C125.001 1.93761 124.79 2.20324 124.612 2.49034C123.506 1.64383 122.919 0.692392 122.911 0.680079L122.503 0.00317383L122.092 0.67923C122.085 0.690693 121.588 1.49624 120.65 2.283C119.865 1.07752 118.504 0.280145 116.958 0.280145C114.526 0.280145 112.556 2.251 112.556 4.68244C112.556 5.02825 112.596 5.36508 112.671 5.68716C111.291 5.87073 110.202 5.6126 110.188 5.60931L109.42 5.41916L109.608 6.18782C109.611 6.20093 109.83 7.12206 109.723 8.34224C108.315 8.04479 106.789 8.44302 105.696 9.53626C103.976 11.2556 103.976 14.0435 105.696 15.7628C105.934 16.0017 106.2 16.2126 106.486 16.3913C105.641 17.4968 104.689 18.0844 104.677 18.091L104 18.4999L104.676 18.9113C104.688 18.9178 105.493 19.4153 106.28 20.3535C105.074 21.1386 104.277 22.499 104.277 24.0453C104.277 26.4768 106.248 28.4476 108.679 28.4476C109.025 28.4476 109.361 28.4075 109.684 28.3321C109.868 29.7121 109.609 30.8012 109.606 30.8143L109.416 31.5822L110.185 31.3945C110.198 31.3913 111.119 31.1733 112.339 31.2807C112.042 32.6885 112.44 34.2145 113.533 35.3076C115.252 37.0269 118.04 37.0269 119.76 35.3076C119.999 35.0687 120.21 34.8031 120.388 34.516C121.494 35.3617 122.081 36.314 122.088 36.3263L122.497 37.0032L122.908 36.3271C122.915 36.3156 123.412 35.5092 124.35 34.7225C125.135 35.9288 126.496 36.7261 128.042 36.7261C130.474 36.7261 132.444 34.7553 132.444 32.3238C132.444 31.978 132.404 31.642 132.329 31.3191C133.709 31.1356 134.798 31.3937 134.811 31.397L135.579 31.5863L135.391 30.8176C135.388 30.8045 135.17 29.8842 135.277 28.664C136.685 28.9615 138.211 28.5632 139.304 27.47C141.024 25.7507 141.024 22.9628 139.304 21.2435C139.066 21.0046 138.8 20.7937 138.514 20.615ZM140.076 18.5048C140.076 18.5048 139.014 19.1448 138.087 20.3822C137.956 20.5573 137.832 20.738 137.717 20.9239C137.594 21.122 137.481 21.3261 137.378 21.5353C136.66 23.0022 134.742 22.9866 133.159 22.1409C133.147 22.1343 133.134 22.1278 133.121 22.1212C133.081 21.9991 133.028 21.8811 132.963 21.7664C132.918 21.6861 132.867 21.6091 132.811 21.5361C132.708 21.4017 132.591 21.2829 132.464 21.1772C132.717 21.1386 132.966 21.0591 133.198 20.9248C133.241 20.9006 133.282 20.8746 133.322 20.8469C133.369 20.8658 133.416 20.8846 133.462 20.9026C133.566 20.942 133.669 20.9781 133.774 21.0117C133.932 21.0624 134.091 21.1051 134.25 21.1411C134.765 21.2575 135.283 21.3001 135.82 21.2928C135.951 21.2911 135.948 21.1018 135.82 21.0911C135.447 21.0616 135.07 20.9977 134.701 20.9092C134.418 20.8412 134.139 20.7576 133.87 20.6642L133.821 20.647C133.759 20.6251 133.699 20.6027 133.638 20.5798C133.82 20.3889 133.964 20.1586 134.071 19.8898C134.233 19.9208 134.396 19.9478 134.559 19.971C134.804 20.0062 135.048 20.0324 135.291 20.0472C135.791 20.08 136.288 20.0676 136.787 19.9947C136.888 19.9806 136.99 19.9637 137.09 19.9439C137.158 19.9308 137.14 19.8268 137.074 19.8251C136.239 19.812 135.388 19.7718 134.565 19.6251C134.436 19.6024 134.308 19.5762 134.181 19.5465C134.239 19.3203 134.276 19.072 134.29 18.8016C134.602 18.8155 134.912 18.8204 135.224 18.8171C135.746 18.8106 136.268 18.7737 136.786 18.7163C137.266 18.663 137.842 18.6287 138.27 18.3926C138.306 18.3729 138.303 18.3049 138.258 18.2992C137.798 18.2337 137.294 18.3475 136.832 18.3885C136.312 18.4344 135.792 18.4549 135.269 18.4582C134.945 18.4606 134.62 18.4533 134.297 18.4377C134.293 18.1574 134.266 17.8977 134.218 17.66C134.307 17.6502 134.396 17.6395 134.484 17.6272C134.904 17.5715 135.319 17.4986 135.729 17.397C135.793 17.3808 135.857 17.3633 135.921 17.3445C136.294 17.2347 136.645 17.0831 137.012 16.9471C137.085 16.92 137.057 16.8061 136.979 16.8283C136.575 16.9406 136.146 16.993 135.734 17.0757C135.524 17.1178 135.313 17.1566 135.102 17.1921C134.867 17.2307 134.631 17.2641 134.395 17.2921C134.307 17.3028 134.219 17.3118 134.131 17.32C134.05 17.0667 133.939 16.8422 133.799 16.6488C133.826 16.6414 133.853 16.634 133.88 16.6259C133.956 16.6046 134.03 16.5824 134.105 16.5587C134.304 16.496 134.5 16.4249 134.693 16.3456C135.151 16.1571 135.588 15.9277 136.022 15.6736C136.15 15.5982 136.036 15.4048 135.905 15.4745C135.403 15.74 134.87 15.9621 134.319 16.1383C134.062 16.221 133.802 16.2932 133.539 16.3547C133.466 16.2864 133.387 16.2239 133.304 16.1678C133.304 16.167 133.304 16.167 133.303 16.167C133.268 16.1424 133.231 16.1191 133.194 16.0973C132.963 15.9613 132.717 15.8794 132.466 15.8368C132.573 15.7514 132.672 15.6562 132.762 15.5524C132.843 15.4588 132.914 15.3578 132.976 15.2508C133.035 15.1497 133.084 15.0435 133.124 14.9337L133.144 14.8772C133.35 14.7652 133.563 14.6678 133.783 14.5854H133.784C134.181 14.5576 134.69 14.4814 135.213 14.2912C136.139 14.2707 136.961 14.6231 137.378 15.4746C137.53 15.7848 137.705 16.0834 137.902 16.3678C138.026 16.5495 138.158 16.7256 138.297 16.8956C139.168 17.9574 140.076 18.5048 140.076 18.5048ZM131.79 24.4084C131.73 24.491 131.665 24.57 131.596 24.6453C131.506 24.7436 131.416 24.8256 131.326 24.8936C131.129 25.0436 130.933 25.1272 130.74 25.1583C130.537 25.1919 130.338 25.1681 130.147 25.1059C129.849 25.0075 129.574 24.8158 129.335 24.5986C129.214 24.4872 129.102 24.3692 129.002 24.2544C128.828 24.0541 128.669 23.841 128.527 23.6168C129.143 22.8924 129.63 22.0549 129.953 21.1395C130.119 21.1469 130.868 21.1928 131.501 21.4846L131.502 21.4854C131.834 21.6378 132.135 21.8582 132.303 22.1762C132.313 22.195 132.323 22.2155 132.333 22.2352C132.422 22.4286 132.463 22.6564 132.436 22.9243C132.422 23.0686 132.388 23.2243 132.331 23.3931C132.264 23.589 132.167 23.8029 132.033 24.0348C131.959 24.1639 131.878 24.2886 131.79 24.4084ZM129.14 26.7284C129.101 26.9727 128.982 27.2242 128.753 27.4742C128.672 27.5635 128.576 27.652 128.465 27.7397C128.383 27.8054 128.298 27.8669 128.21 27.924C128.138 27.9717 128.065 28.0171 127.99 28.0601C127.773 28.1846 127.573 28.278 127.389 28.3428C127.221 28.4018 127.065 28.4378 126.922 28.4534C126.632 28.4858 126.39 28.4356 126.188 28.3312L126.187 28.3297C125.983 28.0385 125.751 27.7676 125.495 27.5209C125.225 26.9164 125.173 26.2008 125.163 25.9474C126.067 25.6234 126.905 25.1369 127.635 24.512C127.716 24.5638 127.979 24.7366 128.264 24.9919C128.384 25.0982 128.497 25.2115 128.603 25.3312C128.658 25.394 128.711 25.4591 128.761 25.5262C128.773 25.5418 128.785 25.5574 128.795 25.5729C128.801 25.5803 128.806 25.5877 128.811 25.5951C129.047 25.9311 129.204 26.3203 129.14 26.7284ZM124.421 28.201C124.397 28.4624 124.318 28.7132 124.155 28.9246C124.032 29.0844 123.86 29.2213 123.628 29.3237C123.524 29.3704 123.407 29.4097 123.276 29.4409C123.088 29.4859 122.87 29.5147 122.621 29.522C122.574 29.5237 122.525 29.5245 122.476 29.5245C122.401 29.5247 122.325 29.5228 122.25 29.5187C122.026 29.5073 121.83 29.4786 121.659 29.4343C121.522 29.3999 121.399 29.3557 121.292 29.3032C121.058 29.1893 120.893 29.0368 120.78 28.8615C120.686 28.7172 120.629 28.5566 120.598 28.3878C120.555 28.1535 120.565 27.9035 120.604 27.6593C120.63 27.4946 120.669 27.3323 120.716 27.1791C120.838 26.7718 121.005 26.4308 121.084 26.28C121.551 26.3648 122.025 26.4073 122.5 26.407C122.992 26.407 123.474 26.362 123.942 26.2751C123.995 26.3748 124.175 26.7334 124.3 27.179C124.344 27.3314 124.381 27.4937 124.404 27.6592C124.429 27.8397 124.437 28.0232 124.421 28.201ZM113.529 24.7559C113.44 24.6747 113.351 24.5789 113.263 24.4674C113.198 24.3858 113.136 24.3013 113.079 24.2142C113.031 24.1422 112.986 24.0678 112.943 23.993C112.819 23.7766 112.725 23.5767 112.66 23.3923C112.601 23.2242 112.565 23.0685 112.55 22.9251C112.517 22.6359 112.565 22.3941 112.669 22.1925C112.671 22.1917 112.672 22.1909 112.673 22.1901C112.673 22.1893 112.673 22.1884 112.672 22.1876C112.837 21.868 113.142 21.6484 113.482 21.4968L113.483 21.496C114.087 21.2281 114.803 21.1756 115.056 21.1658C115.382 22.0795 115.872 22.9146 116.491 23.6373C116.438 23.7201 116.265 23.9831 116.01 24.2675C115.985 24.2953 115.96 24.324 115.933 24.3519C115.907 24.3793 115.881 24.4064 115.854 24.4331C115.847 24.4404 115.838 24.4486 115.831 24.4568C115.819 24.4682 115.806 24.4797 115.794 24.492C115.782 24.5043 115.769 24.5158 115.756 24.5281C115.749 24.5354 115.741 24.5425 115.733 24.5493C115.713 24.5682 115.692 24.587 115.671 24.6051C115.647 24.6263 115.623 24.6469 115.598 24.6682C115.571 24.6903 115.543 24.7132 115.515 24.7345C115.487 24.7567 115.459 24.778 115.429 24.7985C115.423 24.8042 115.416 24.8094 115.408 24.814C115.072 25.0493 114.683 25.2074 114.275 25.1427C114.031 25.1042 113.78 24.9854 113.529 24.7559ZM112.079 20.1586C111.92 20.0348 111.782 19.8635 111.679 19.6316C111.634 19.5267 111.593 19.4104 111.562 19.2792C111.517 19.0907 111.488 18.8728 111.481 18.6237C111.48 18.577 111.479 18.5286 111.479 18.4794C111.479 18.4008 111.48 18.3254 111.484 18.2532C111.496 18.0295 111.525 17.8337 111.569 17.6624C111.603 17.5248 111.647 17.4034 111.7 17.2961C111.814 17.0617 111.966 16.8961 112.142 16.7823C112.287 16.6896 112.446 16.6323 112.614 16.602C112.633 16.5979 112.654 16.5946 112.674 16.5922C112.715 16.5857 112.755 16.5813 112.796 16.579C112.816 16.5774 112.837 16.5758 112.859 16.575C112.887 16.5742 112.914 16.5733 112.942 16.5733C112.964 16.5733 112.986 16.5733 113.008 16.575C113.023 16.575 113.037 16.5758 113.053 16.5766C113.09 16.5783 113.127 16.5807 113.164 16.5848C113.194 16.5872 113.224 16.5905 113.254 16.5946C113.277 16.597 113.3 16.6003 113.324 16.6044L113.344 16.6069C113.377 16.6126 113.41 16.6183 113.443 16.6249C113.459 16.6273 113.476 16.6306 113.492 16.6347C113.532 16.6421 113.571 16.6511 113.61 16.6609C113.651 16.6708 113.692 16.6814 113.732 16.6929C113.754 16.6986 113.776 16.7052 113.796 16.7109C113.805 16.7134 113.815 16.7167 113.824 16.7191C114.231 16.8412 114.572 17.0092 114.723 17.0879C114.638 17.5548 114.596 18.0285 114.596 18.5031C114.596 18.9956 114.641 19.4775 114.728 19.9454C114.628 19.9979 114.268 20.1781 113.823 20.3035C113.671 20.347 113.509 20.383 113.344 20.406C113.166 20.4314 112.985 20.4404 112.81 20.424C112.809 20.4248 112.81 20.4248 112.81 20.424C112.546 20.4011 112.292 20.3224 112.079 20.1586ZM113.209 12.5987C113.27 12.5161 113.335 12.4368 113.404 12.3611C113.494 12.2635 113.583 12.1808 113.673 12.1127C113.87 11.9628 114.067 11.8792 114.26 11.848C114.464 11.8144 114.664 11.8382 114.855 11.9013C115.151 11.9989 115.426 12.1906 115.664 12.4078C115.782 12.5156 115.893 12.6306 115.997 12.752C116.228 13.0167 116.396 13.2666 116.473 13.3896C115.857 14.114 115.37 14.9515 115.048 15.8661C114.885 15.8603 114.134 15.8144 113.499 15.5218C113.499 15.5218 113.498 15.5218 113.498 15.521C113.166 15.3686 112.866 15.1482 112.698 14.831C112.687 14.8113 112.676 14.7914 112.667 14.7712C112.657 14.7493 112.648 14.7271 112.639 14.7048C112.631 14.6852 112.624 14.6652 112.618 14.645C112.608 14.6165 112.6 14.5875 112.593 14.5581C112.586 14.5305 112.58 14.5026 112.575 14.4746C112.569 14.4459 112.565 14.4161 112.563 14.3869C112.555 14.3161 112.553 14.2449 112.557 14.1738C112.557 14.1591 112.559 14.1435 112.559 14.1288C112.56 14.1132 112.561 14.0976 112.564 14.0821C112.577 13.9378 112.612 13.7821 112.669 13.6133C112.736 13.4166 112.833 13.2035 112.967 12.9716C113.047 12.8331 113.127 12.7086 113.209 12.5987ZM115.86 10.2779C115.899 10.0337 116.018 9.78293 116.247 9.53217C116.336 9.43604 116.432 9.34724 116.535 9.26667C116.617 9.20099 116.703 9.13918 116.791 9.08145C116.863 9.03438 116.936 8.98929 117.01 8.94623C117.227 8.82168 117.427 8.72822 117.611 8.66353C117.779 8.60451 117.935 8.56848 118.078 8.55288C118.367 8.52008 118.609 8.56843 118.811 8.67255C118.811 8.6742 118.812 8.67499 118.813 8.67584C119.018 8.96756 119.251 9.2413 119.506 9.48547L119.507 9.48627C119.774 10.0886 119.827 10.8032 119.837 11.058C118.933 11.3821 118.095 11.8687 117.365 12.4938C117.282 12.4414 117.02 12.2685 116.736 12.0136C116.623 11.9128 116.507 11.7988 116.398 11.6743C116.324 11.5906 116.254 11.5028 116.189 11.4112C115.953 11.0753 115.796 10.686 115.86 10.2779ZM122.749 7.48676C122.973 7.49822 123.169 7.52693 123.341 7.57114C123.478 7.60558 123.601 7.64979 123.708 7.70228C123.941 7.81701 124.108 7.96863 124.221 8.14482C124.314 8.28907 124.371 8.44966 124.402 8.61768C124.445 8.85203 124.435 9.10284 124.395 9.34701C124.37 9.51174 124.33 9.67398 124.284 9.82724C124.162 10.2337 123.995 10.5746 123.915 10.7254C123.448 10.6406 122.975 10.5981 122.5 10.5984C122.007 10.5984 121.526 10.6435 121.058 10.7303C121.004 10.6287 120.824 10.2706 120.7 9.82645C120.656 9.67483 120.619 9.51259 120.596 9.34707C120.572 9.16923 120.563 8.98731 120.578 8.81111V8.80867C120.602 8.54561 120.681 8.29321 120.845 8.08098C120.968 7.92119 121.14 7.78432 121.372 7.6819C121.476 7.63519 121.593 7.59587 121.723 7.56472C121.912 7.51966 122.13 7.49095 122.379 7.48357C122.427 7.48193 122.475 7.48111 122.524 7.48113C122.599 7.48079 122.674 7.48266 122.749 7.48676ZM131.472 12.2505C131.568 12.339 131.657 12.4352 131.737 12.5381C131.802 12.6199 131.864 12.7047 131.921 12.7921C131.968 12.8642 132.014 12.9377 132.057 13.0126C132.182 13.2298 132.275 13.4297 132.34 13.6141C132.399 13.7821 132.435 13.9378 132.45 14.0812C132.483 14.3705 132.435 14.6122 132.331 14.8146C132.329 14.8146 132.328 14.8154 132.327 14.8163C132.327 14.8171 132.327 14.8179 132.328 14.8187C132.163 15.1383 131.858 15.358 131.518 15.5095L131.517 15.5103C130.913 15.7783 130.197 15.8308 129.943 15.8406C129.618 14.9268 129.127 14.0901 128.509 13.3674C128.561 13.2846 128.734 13.0224 128.989 12.738C129.09 12.6257 129.203 12.5094 129.328 12.4004C129.412 12.3266 129.499 12.2561 129.592 12.1922C129.928 11.9554 130.318 11.7981 130.726 11.8628C130.97 11.9013 131.221 12.0201 131.472 12.2505ZM132.921 16.8478C133.08 16.9716 133.218 17.142 133.32 17.3739C133.367 17.4788 133.407 17.596 133.438 17.7271C133.483 17.9156 133.511 18.1328 133.519 18.3819C133.521 18.4294 133.521 18.4778 133.521 18.5269C133.521 18.6048 133.52 18.6802 133.516 18.7523C133.504 18.976 133.475 19.1727 133.431 19.344C133.397 19.4816 133.352 19.6038 133.3 19.7111C133.186 19.9447 133.034 20.1102 132.858 20.2233C132.714 20.3167 132.554 20.3741 132.386 20.4044C132.151 20.4478 131.901 20.438 131.656 20.3995C131.491 20.3733 131.329 20.3339 131.176 20.2872C130.769 20.1651 130.428 19.9979 130.277 19.9184C130.362 19.4514 130.404 18.9778 130.404 18.5031C130.404 18.0106 130.359 17.5288 130.272 17.0608C130.374 17.0075 130.732 16.8273 131.176 16.7027C131.328 16.6593 131.491 16.6224 131.656 16.5994C131.834 16.5749 132.015 16.5658 132.191 16.5814H132.194C132.457 16.6052 132.709 16.6839 132.921 16.8478ZM118.079 28.4395C117.935 28.4256 117.779 28.3912 117.61 28.3338C117.413 28.2674 117.2 28.1699 116.968 28.0363C116.839 27.9624 116.715 27.8812 116.595 27.793C116.512 27.733 116.433 27.6684 116.358 27.5996C116.26 27.5094 116.178 27.4193 116.109 27.3291C115.96 27.1325 115.876 26.9358 115.845 26.7432C115.811 26.5391 115.835 26.3392 115.898 26.1482L115.913 26.1056C115.918 26.0917 115.923 26.0785 115.928 26.0646C115.937 26.0409 115.947 26.0179 115.958 25.9942C115.96 25.9909 115.961 25.9876 115.963 25.9835C116.006 25.8885 116.057 25.797 116.114 25.7098C116.127 25.6901 116.14 25.6712 116.154 25.6516C116.161 25.6409 116.169 25.6303 116.177 25.6196C116.191 25.5992 116.205 25.5795 116.22 25.5598C116.238 25.5353 116.257 25.5115 116.277 25.4877C116.293 25.4672 116.31 25.4467 116.327 25.4263C116.353 25.3968 116.379 25.3672 116.405 25.3386C116.435 25.3058 116.464 25.2747 116.495 25.2435C116.514 25.2239 116.533 25.205 116.552 25.187C116.588 25.1512 116.624 25.1162 116.662 25.0821C116.683 25.0633 116.704 25.0444 116.724 25.0264C116.732 25.019 116.741 25.0116 116.749 25.0051C116.949 24.8308 117.162 24.6716 117.386 24.529C118.118 25.1521 118.957 25.6359 119.863 25.9565C119.856 26.1221 119.81 26.8719 119.518 27.5054C119.365 27.8364 119.145 28.1364 118.829 28.3052C118.81 28.3159 118.789 28.3257 118.768 28.3355C118.575 28.4248 118.347 28.4666 118.079 28.4395ZM128.642 9.40682C128.74 9.49614 128.822 9.58631 128.89 9.67642C129.04 9.87309 129.124 10.069 129.155 10.2624C129.189 10.4664 129.165 10.6664 129.102 10.8573C129.004 11.154 128.812 11.4293 128.594 11.667C128.484 11.7882 128.366 11.9005 128.251 12.0005C128.051 12.1747 127.838 12.3336 127.614 12.4758C126.888 11.8595 126.051 11.3719 125.136 11.0491C125.144 10.8835 125.189 10.1353 125.481 9.50187C125.481 9.50187 125.481 9.50108 125.482 9.50108C125.634 9.16918 125.855 8.86923 126.172 8.70126C126.192 8.69059 126.212 8.67998 126.233 8.67096C126.426 8.58079 126.654 8.53982 126.921 8.56689C127.065 8.58079 127.221 8.61524 127.39 8.6726C127.587 8.73899 127.8 8.83648 128.032 8.97006C128.171 9.05035 128.295 9.1315 128.406 9.21344C128.488 9.27357 128.567 9.33813 128.642 9.40682ZM115.653 18.5031C115.653 14.722 118.719 11.6563 122.5 11.6563C126.281 11.6563 129.347 14.722 129.347 18.5031C129.347 22.2843 126.281 25.35 122.5 25.35C118.719 25.3501 115.653 22.2843 115.653 18.5031ZM136.321 9.20521C138.395 9.20521 140.076 10.8868 140.076 12.961C140.076 14.2984 139.377 15.4719 138.324 16.1365C138.13 15.8594 137.957 15.5676 137.808 15.2637C137.462 14.5581 136.85 14.082 136.063 13.8976C137.03 13.3781 137.66 12.7971 137.529 12.5102C137.374 12.1759 136.24 12.3684 134.995 12.9405C134.163 13.3224 133.561 13.9263 133.252 14.2853C133.248 14.2861 133.243 14.2886 133.239 14.291C133.241 14.1404 133.229 13.99 133.202 13.8419C133.995 13.5281 134.691 13.047 135.156 12.4496C135.743 11.6965 135.907 10.8172 135.617 9.97143C135.543 9.75506 135.48 9.53484 135.43 9.31172C135.721 9.24076 136.021 9.205 136.321 9.20521ZM134.929 6.07638C134.929 6.07638 134.631 7.27857 134.851 8.80936C134.88 9.01915 134.92 9.23551 134.972 9.45512C135.024 9.68225 135.089 9.90653 135.164 10.1271C135.645 11.5276 134.564 12.765 133.079 13.3723C132.994 13.1313 132.878 12.8822 132.729 12.6249C132.689 12.5555 132.647 12.4869 132.604 12.4192C132.555 12.3425 132.504 12.2674 132.45 12.1938C132.526 12.151 132.6 12.1062 132.674 12.0595C133.121 11.7784 133.517 11.4424 133.892 11.0572C133.983 10.963 133.847 10.8311 133.749 10.9146C133.464 11.1572 133.152 11.3785 132.828 11.5768C132.632 11.6972 132.431 11.8092 132.226 11.9128C132.18 11.8605 132.132 11.8099 132.083 11.7612C131.922 11.5989 131.752 11.4653 131.575 11.3604C131.741 11.2494 131.905 11.1338 132.065 11.0138C132.261 10.8679 132.451 10.7142 132.634 10.5532C133.012 10.2213 133.356 9.85993 133.659 9.45347C133.719 9.37184 133.778 9.28905 133.835 9.20516C133.874 9.14699 133.788 9.08634 133.74 9.13224C133.14 9.7141 132.511 10.2869 131.824 10.7655C131.613 10.9115 131.397 11.0482 131.174 11.1752C130.975 11.1085 130.767 11.074 130.558 11.0728C130.441 11.0717 130.325 11.081 130.21 11.1007C130.739 10.6721 131.243 10.2148 131.718 9.728C132.083 9.35434 132.426 8.95934 132.752 8.55203C133.054 8.17587 133.437 7.74319 133.573 7.27363C133.583 7.23431 133.534 7.1884 133.498 7.21626C133.126 7.49573 132.851 7.93249 132.553 8.28817C132.218 8.6881 131.863 9.07079 131.497 9.44201C130.995 9.9511 130.462 10.4287 129.901 10.872C129.93 10.7352 129.946 10.5934 129.946 10.4484C129.947 10.2918 129.928 10.1358 129.891 9.98375C130.051 9.79666 130.205 9.60509 130.355 9.40926C130.612 9.07408 130.853 8.72907 131.072 8.36687C131.106 8.3102 131.138 8.25282 131.17 8.19476C131.357 7.8522 131.498 7.49817 131.661 7.1409C131.693 7.07043 131.593 7.00977 131.554 7.08024C131.347 7.44574 131.081 7.78581 130.848 8.13575C130.729 8.3151 130.607 8.49214 130.481 8.66677C130.343 8.86008 130.201 9.04998 130.054 9.23631C129.956 9.35973 129.856 9.48131 129.754 9.60101C129.668 9.42237 129.554 9.25027 129.411 9.08554C129.377 9.04556 129.342 9.00674 129.305 8.96916C129.314 8.95361 129.322 8.93721 129.33 8.92161C129.427 8.73703 129.515 8.54837 129.595 8.35615C129.786 7.89885 129.933 7.42764 130.06 6.94088C130.097 6.79664 129.881 6.74012 129.837 6.88187C129.67 7.4252 129.449 7.9603 129.184 8.47412C129.139 8.561 129.094 8.64623 129.047 8.73146C128.967 8.66398 128.884 8.60026 128.798 8.54051C128.676 8.45359 128.549 8.37264 128.419 8.29793C128.147 8.14058 127.883 8.01931 127.63 7.93323C127.654 7.87258 127.681 7.81362 127.707 7.7546C127.917 7.28913 128.19 6.86956 128.512 6.53437C129.152 5.86569 129.982 5.53379 130.878 5.84106C131.206 5.95265 131.541 6.04029 131.881 6.10328C132.104 6.14505 132.323 6.1754 132.534 6.19589C133.9 6.33127 134.929 6.07638 134.929 6.07638ZM125.698 2.15595C127.165 0.689048 129.543 0.689048 131.009 2.15595C131.954 3.10165 132.29 4.42596 132.017 5.64041C131.698 5.58389 131.368 5.50274 131.034 5.38801C130.291 5.13396 129.521 5.22901 128.835 5.65516C129.15 4.60459 129.185 3.7482 128.89 3.6384C128.544 3.51056 127.878 4.44888 127.402 5.73466C127.107 6.52874 127.087 7.31953 127.114 7.80714C126.98 7.78612 126.844 7.77706 126.708 7.78008C127.092 6.95728 127.267 6.06979 127.169 5.27327C127.051 4.32592 126.545 3.58756 125.743 3.19506C125.537 3.09434 125.338 2.98273 125.144 2.86072C125.296 2.60991 125.481 2.37311 125.698 2.15595ZM120.892 2.70581C121.954 1.83551 122.502 0.926694 122.502 0.926694C122.502 0.926694 123.142 1.98793 124.379 2.91644C124.554 3.0478 124.735 3.17112 124.921 3.28602C125.113 3.40649 125.317 3.52038 125.532 3.62529C126.999 4.34317 126.983 6.26244 126.138 7.84402C126.131 7.85684 126.125 7.86941 126.117 7.8817C125.994 7.92254 125.876 7.97524 125.763 8.03905C125.683 8.08432 125.606 8.13525 125.533 8.19147C125.398 8.2939 125.279 8.41107 125.173 8.53892C125.136 8.28572 125.056 8.03741 124.922 7.80465C124.897 7.76232 124.871 7.72104 124.844 7.68089C124.863 7.63419 124.882 7.58748 124.9 7.54073C124.939 7.43792 124.975 7.33408 125.009 7.22932C125.059 7.07032 125.102 6.91138 125.138 6.75238C125.05 6.60781 124.973 6.45749 124.905 6.30245C124.838 6.58344 124.757 6.86079 124.661 7.13342L124.644 7.18261C124.622 7.24372 124.6 7.30463 124.577 7.36534C124.386 7.18341 124.155 7.03837 123.887 6.93181C123.917 6.76954 123.944 6.60671 123.968 6.44341C124.003 6.19918 124.029 5.9558 124.044 5.71407C124.077 5.21171 124.065 4.71349 123.992 4.21278C123.977 4.11268 123.96 4.01215 123.941 3.91288C123.928 3.84484 123.824 3.86289 123.822 3.92928C123.809 4.76433 123.769 5.61414 123.622 6.43858C123.599 6.56807 123.573 6.69591 123.543 6.82211C123.317 6.76395 123.069 6.72706 122.799 6.71311C122.812 6.40169 122.817 6.09113 122.814 5.77972C122.807 5.25772 122.771 4.73567 122.713 4.21697C122.66 3.73759 122.625 3.16146 122.389 2.73287C122.37 2.69763 122.303 2.70008 122.296 2.74518C122.23 3.20493 122.344 3.70973 122.385 4.17112C122.431 4.69067 122.452 5.21187 122.455 5.73386C122.458 6.05838 122.45 6.38291 122.435 6.70658C122.154 6.71067 121.895 6.73688 121.657 6.78523C121.647 6.6963 121.636 6.60751 121.624 6.51887C121.568 6.0993 121.495 5.68461 121.394 5.27407C121.378 5.20979 121.36 5.14586 121.341 5.08233C121.232 4.70946 121.081 4.35872 120.944 3.99079C120.917 3.91787 120.804 3.94653 120.825 4.02358C120.937 4.4284 120.99 4.85699 121.073 5.26918C121.115 5.47936 121.154 5.69028 121.189 5.90183C121.227 6.13652 121.261 6.37205 121.289 6.60824C121.3 6.69591 121.309 6.78443 121.317 6.8721C121.063 6.95325 120.839 7.06385 120.646 7.204C120.638 7.17694 120.631 7.14993 120.623 7.12286C120.545 6.84746 120.451 6.57683 120.342 6.31238C120.155 5.85263 119.925 5.41587 119.67 4.98155C119.595 4.8529 119.402 4.96679 119.471 5.09708C119.737 5.59944 119.959 6.13454 120.135 6.68525C120.218 6.94151 120.29 7.20174 120.352 7.46373C120.283 7.53694 120.221 7.61559 120.164 7.69893C120.164 7.69893 120.164 7.69893 120.164 7.69973C120.139 7.73559 120.116 7.7722 120.094 7.80953C119.958 8.0398 119.876 8.28647 119.833 8.53643C119.749 8.42899 119.654 8.32991 119.55 8.24056C119.456 8.16037 119.355 8.08879 119.248 8.02669C119.147 7.96849 119.041 7.91888 118.931 7.87836C118.912 7.87178 118.894 7.86605 118.875 7.85952C118.763 7.65309 118.665 7.43925 118.582 7.2195C118.401 6.74092 118.298 6.25172 118.288 5.78789C118.267 4.86267 118.62 4.04157 119.471 3.62524C119.782 3.47284 120.081 3.29782 120.365 3.1016C120.547 2.97776 120.723 2.84569 120.892 2.70581ZM113.202 4.68244C113.202 2.60832 114.884 0.926694 116.958 0.926694C118.295 0.926694 119.47 1.62573 120.135 2.67879C119.869 2.86401 119.578 3.0402 119.261 3.19506C118.556 3.54006 118.08 4.15143 117.894 4.93729C117.374 3.97195 116.794 3.34254 116.508 3.47447C116.173 3.62773 116.365 4.76269 116.937 6.00834C117.318 6.83766 117.92 7.43836 118.28 7.74813C118.282 7.75306 118.285 7.75795 118.287 7.76288C118.137 7.76143 117.987 7.77433 117.839 7.80141C117.525 7.00812 117.044 6.31238 116.446 5.8469C115.694 5.25931 114.814 5.09623 113.968 5.38551C113.752 5.45951 113.532 5.52188 113.309 5.57237C113.238 5.28096 113.202 4.98223 113.202 4.68244ZM110.073 6.07393C110.073 6.07393 111.276 6.37224 112.807 6.15258C113.024 6.12196 113.239 6.0815 113.452 6.03132C113.679 5.97863 113.903 5.91435 114.124 5.83873C115.525 5.3585 116.762 6.43858 117.369 7.92432C117.128 8.00875 116.879 8.12508 116.622 8.27426C116.553 8.31408 116.484 8.35561 116.417 8.39882C116.34 8.4478 116.265 8.49918 116.192 8.55288C116.148 8.47734 116.104 8.40274 116.057 8.32913C115.775 7.88335 115.439 7.48586 115.054 7.1114C114.96 7.01964 114.828 7.15645 114.912 7.25399C115.154 7.53919 115.375 7.8506 115.574 8.17513C115.694 8.37149 115.806 8.57243 115.91 8.77747C115.858 8.82283 115.807 8.87011 115.758 8.91922C115.596 9.08145 115.461 9.25191 115.357 9.42895C115.246 9.2621 115.131 9.09841 115.011 8.93806C114.862 8.74059 114.709 8.54964 114.548 8.36772C114.218 7.99076 113.857 7.6474 113.452 7.3458C113.37 7.2842 113.287 7.2249 113.202 7.16797C113.145 7.12864 113.083 7.21552 113.13 7.26302C113.711 7.86286 114.284 8.49227 114.762 9.179C114.911 9.39122 115.046 9.60838 115.173 9.82883C115.106 10.0264 115.072 10.232 115.07 10.4451C115.069 10.5615 115.078 10.6778 115.098 10.7925C114.669 10.264 114.212 9.75995 113.725 9.28466C113.351 8.91996 112.956 8.5766 112.549 8.25043C112.173 7.94884 111.74 7.56535 111.271 7.43013C111.231 7.41867 111.186 7.46866 111.213 7.50469C111.493 7.87592 111.929 8.15209 112.285 8.44955C112.685 8.78474 113.068 9.13877 113.439 9.50506C113.948 10.0075 114.426 10.5409 114.87 11.1022C114.73 11.072 114.588 11.0566 114.445 11.0563C114.286 11.0563 114.131 11.0744 113.981 11.1113C113.794 10.9519 113.602 10.7975 113.407 10.6482C113.071 10.3909 112.726 10.1492 112.364 9.93036C112.307 9.89633 112.25 9.86354 112.192 9.83202L112.191 9.83122C111.849 9.64601 111.494 9.50506 111.138 9.34197C111.067 9.30917 111.008 9.40916 111.077 9.44933C111.443 9.65583 111.783 9.92139 112.133 10.1541C112.311 10.273 112.488 10.3949 112.663 10.5196C112.857 10.6572 113.047 10.8007 113.233 10.9482C113.357 11.0457 113.479 11.146 113.598 11.2489C113.418 11.3342 113.246 11.448 113.082 11.5906C113.042 11.6253 113.004 11.6608 112.966 11.6972C112.951 11.6881 112.935 11.68 112.919 11.6717C112.735 11.5758 112.546 11.4878 112.354 11.4079C111.896 11.2161 111.425 11.0694 110.938 10.9424C110.794 10.9047 110.738 11.1219 110.879 11.1653C111.421 11.3325 111.957 11.5537 112.472 11.8184C112.558 11.8627 112.643 11.9077 112.728 11.9544C112.661 12.0346 112.598 12.1174 112.537 12.2028C112.451 12.3257 112.37 12.4526 112.295 12.583C112.138 12.8559 112.016 13.1189 111.93 13.373C111.871 13.3486 111.812 13.3232 111.753 13.2968C111.287 13.0862 110.867 12.8125 110.531 12.4912C109.863 11.8512 109.531 11.021 109.838 10.1245C109.95 9.79726 110.037 9.4623 110.1 9.12232C110.141 8.90633 110.172 8.68867 110.193 8.46998C110.329 7.10402 110.073 6.07393 110.073 6.07393ZM106.153 15.3047C104.686 13.8386 104.686 11.4605 106.153 9.99356C107.099 9.04871 108.423 8.71267 109.637 8.98641C109.579 9.31998 109.495 9.64851 109.386 9.96899C109.131 10.7123 109.227 11.481 109.651 12.1677C108.601 11.8522 107.746 11.8177 107.636 12.1136C107.507 12.4586 108.446 13.1248 109.732 13.601C110.527 13.8952 111.317 13.9165 111.804 13.8894C111.783 14.0236 111.774 14.1593 111.777 14.2951C110.954 13.9115 110.067 13.7362 109.27 13.8345C108.323 13.9509 107.584 14.4582 107.192 15.2605C107.091 15.4657 106.98 15.6654 106.858 15.8587C106.601 15.7029 106.365 15.5169 106.153 15.3047ZM104.924 18.5016C104.924 18.5016 105.986 17.8615 106.913 16.6241C107.045 16.4489 107.168 16.2679 107.284 16.0816C107.403 15.8898 107.517 15.6858 107.622 15.4711C108.34 14.0042 110.259 14.0198 111.841 14.8655C111.853 14.8712 111.865 14.8778 111.878 14.8852C111.919 15.0082 111.972 15.127 112.036 15.24C112.081 15.3201 112.132 15.397 112.188 15.4703C112.29 15.6027 112.407 15.7233 112.536 15.83C112.283 15.8677 112.034 15.9472 111.801 16.0816C111.759 16.1062 111.718 16.1316 111.678 16.1595C111.631 16.1406 111.584 16.1218 111.538 16.1038C111.435 16.0646 111.331 16.0283 111.226 15.9947C111.069 15.9447 110.911 15.9014 110.75 15.8653C110.235 15.7481 109.716 15.7055 109.18 15.7128C109.049 15.7153 109.052 15.9046 109.18 15.9145C109.553 15.944 109.929 16.0079 110.299 16.0972C110.58 16.1648 110.857 16.2463 111.13 16.3414C111.147 16.3471 111.164 16.3529 111.18 16.3594C111.241 16.3808 111.302 16.4029 111.362 16.4258C111.18 16.6168 111.035 16.8471 110.929 17.1166C110.767 17.0858 110.604 17.0587 110.441 17.0355C110.199 17.0002 109.956 16.9745 109.713 16.9584C109.211 16.9256 108.712 16.938 108.212 17.0109C108.211 17.0109 108.21 17.0117 108.21 17.0109C108.11 17.0256 108.01 17.0428 107.91 17.0625C107.842 17.0756 107.86 17.1797 107.926 17.1805C108.761 17.1936 109.612 17.2338 110.435 17.3813C110.565 17.4042 110.693 17.4304 110.819 17.4592C110.761 17.6853 110.725 17.9337 110.71 18.2032C110.399 18.1901 110.088 18.1852 109.776 18.1893C109.254 18.1959 108.732 18.232 108.214 18.2893C107.734 18.3426 107.158 18.377 106.73 18.6138C106.694 18.6335 106.697 18.7007 106.742 18.7073C107.202 18.7728 107.706 18.6581 108.168 18.6179C108.687 18.572 109.209 18.5515 109.73 18.5475C110.055 18.545 110.38 18.5524 110.703 18.5679C110.707 18.8482 110.734 19.108 110.782 19.3456C110.693 19.3554 110.604 19.367 110.516 19.3784C110.096 19.4341 109.681 19.5079 109.271 19.6095C109.206 19.6259 109.142 19.6431 109.079 19.662C108.706 19.7718 108.355 19.9226 107.988 20.0594C107.915 20.0865 107.943 20.1996 108.021 20.1782C108.425 20.0659 108.854 20.0135 109.266 19.9308C109.476 19.8879 109.687 19.8491 109.898 19.8144C110.133 19.775 110.369 19.7417 110.605 19.7144C110.693 19.7037 110.781 19.6947 110.869 19.6866C110.951 19.9406 111.06 20.1643 111.201 20.3577C111.174 20.3651 111.147 20.3725 111.12 20.3806C110.844 20.4586 110.573 20.5519 110.307 20.6601C109.848 20.8486 109.412 21.078 108.978 21.3329C108.85 21.4083 108.963 21.6008 109.095 21.532C109.597 21.2665 110.131 21.0444 110.683 20.8682C110.939 20.7855 111.198 20.713 111.46 20.651C111.534 20.7198 111.612 20.7826 111.696 20.8387C111.696 20.8387 111.696 20.8395 111.696 20.8395C111.732 20.8633 111.769 20.887 111.806 20.9092C112.037 21.0452 112.283 21.1271 112.533 21.1697C112.426 21.2544 112.327 21.3494 112.238 21.4533C112.157 21.547 112.086 21.6479 112.023 21.7549C111.965 21.8561 111.916 21.9622 111.876 22.072C111.869 22.0909 111.862 22.1106 111.856 22.1294C111.65 22.2406 111.437 22.3381 111.218 22.4211C110.739 22.6023 110.249 22.7055 109.786 22.7154C108.86 22.7342 108.038 22.3827 107.622 21.5312C107.47 21.2209 107.295 20.9224 107.099 20.638C106.974 20.4563 106.842 20.2802 106.703 20.1102C105.832 19.049 104.924 18.5016 104.924 18.5016ZM108.679 27.8011C106.605 27.8011 104.924 26.1196 104.924 24.0454C104.924 22.708 105.623 21.5344 106.675 20.8691C106.861 21.1346 107.037 21.4255 107.192 21.7418C107.537 22.4473 108.149 22.9243 108.935 23.1087C107.969 23.6283 107.339 24.2093 107.471 24.4953C107.625 24.8305 108.76 24.6379 110.005 24.0659C110.835 23.684 111.437 23.0825 111.747 22.7228C111.751 22.7211 111.755 22.7187 111.76 22.7162C111.758 22.8665 111.771 23.0166 111.798 23.1645C111.005 23.4783 110.309 23.9594 109.844 24.5568C109.257 25.3091 109.093 26.1892 109.383 27.035C109.457 27.2513 109.52 27.4716 109.57 27.6947C109.278 27.7656 108.979 27.8013 108.679 27.8011ZM110.071 30.93C110.071 30.93 110.369 29.7269 110.149 28.1961C110.119 27.9794 110.078 27.7642 110.028 27.5512C109.975 27.324 109.911 27.0998 109.836 26.8792C109.355 25.4787 110.435 24.2413 111.921 23.634C112.006 23.875 112.122 24.1241 112.271 24.3814C112.311 24.4508 112.353 24.5194 112.396 24.5871C112.445 24.6638 112.496 24.7389 112.55 24.8125C112.474 24.8553 112.399 24.9001 112.326 24.9468C111.879 25.2279 111.483 25.5639 111.108 25.9491C111.017 26.0433 111.153 26.1744 111.251 26.0917C111.536 25.8491 111.847 25.627 112.172 25.4287C112.368 25.3083 112.569 25.1962 112.774 25.0927C112.82 25.1455 112.867 25.1967 112.917 25.246C113.079 25.4082 113.249 25.5418 113.426 25.6459C113.259 25.7568 113.095 25.8724 112.935 25.9926C112.739 26.1385 112.549 26.2921 112.365 26.4531C112.365 26.4531 112.365 26.4539 112.365 26.4539C111.987 26.7858 111.644 27.1464 111.342 27.552C111.281 27.6336 111.222 27.7167 111.165 27.8011C111.125 27.8585 111.212 27.9192 111.26 27.8733C111.86 27.2922 112.489 26.7194 113.176 26.2408C113.388 26.0925 113.604 25.9573 113.825 25.8303C114.023 25.8975 114.229 25.9311 114.442 25.9336C114.558 25.9347 114.675 25.9254 114.789 25.9057C114.26 26.3335 113.757 26.7918 113.281 27.2783C112.917 27.652 112.573 28.0462 112.247 28.4543C111.946 28.8305 111.563 29.2624 111.427 29.7327C111.416 29.7712 111.466 29.8172 111.502 29.7901C111.874 29.5106 112.149 29.073 112.446 28.7182C112.782 28.3182 113.136 27.9356 113.502 27.5643C114.004 27.055 114.538 26.5771 115.099 26.1335C115.069 26.2727 115.053 26.4147 115.053 26.5572C115.053 26.7162 115.072 26.871 115.109 27.0218C114.949 27.2089 114.794 27.4004 114.645 27.5963C114.388 27.9323 114.146 28.2773 113.928 28.6395C113.894 28.6957 113.861 28.7528 113.83 28.8107C113.643 29.1533 113.502 29.5081 113.339 29.8646C113.307 29.9359 113.406 29.9957 113.446 29.926C113.653 29.5606 113.918 29.2205 114.151 28.8705C114.27 28.6915 114.392 28.5145 114.517 28.3395C114.655 28.1462 114.798 27.9563 114.945 27.77C115.043 27.6462 115.143 27.5246 115.246 27.4053C115.332 27.5839 115.446 27.756 115.588 27.9208C115.623 27.9601 115.658 27.9986 115.694 28.0363C115.685 28.0518 115.677 28.0682 115.669 28.0838C115.572 28.2687 115.484 28.4576 115.404 28.6501C115.212 29.1082 115.066 29.5785 114.939 30.0654C114.902 30.2096 115.119 30.2653 115.162 30.1235C115.33 29.581 115.551 29.0459 115.815 28.5321C115.86 28.446 115.906 28.36 115.952 28.2747C116.032 28.3422 116.115 28.4059 116.201 28.4657C116.324 28.5526 116.45 28.6336 116.581 28.7083C116.853 28.8656 117.117 28.9869 117.37 29.073C117.344 29.1336 117.319 29.1934 117.292 29.2524C117.082 29.7179 116.809 30.1367 116.489 30.471L116.488 30.4718C115.847 31.1397 115.018 31.4716 114.121 31.1643C113.781 31.0471 113.445 30.9627 113.119 30.9021C112.903 30.8615 112.685 30.8309 112.466 30.8103C111.1 30.6751 110.071 30.93 110.071 30.93ZM119.301 34.8504C117.835 36.3164 115.457 36.3164 113.991 34.8504C113.045 33.9047 112.71 32.5804 112.982 31.3659C113.301 31.4216 113.632 31.5028 113.966 31.6175C114.708 31.8723 115.478 31.7765 116.164 31.352C115.85 32.4025 115.815 33.2573 116.11 33.3671C116.455 33.4949 117.122 32.5566 117.598 31.2716C117.893 30.4767 117.913 29.6868 117.886 29.1992C118.025 29.2204 118.16 29.2295 118.292 29.2262C117.907 30.049 117.733 30.9365 117.831 31.733C117.948 32.6804 118.455 33.4179 119.257 33.8112C119.462 33.912 119.662 34.0236 119.855 34.1456C119.7 34.4018 119.514 34.6385 119.301 34.8504ZM124.108 34.3005C123.046 35.1708 122.498 36.0789 122.498 36.0789C122.498 36.0789 121.858 35.0176 120.621 34.09C120.446 33.9586 120.265 33.8353 120.079 33.7204C119.881 33.5967 119.677 33.4835 119.468 33.3811C118.001 32.6632 118.016 30.744 118.861 29.1624C118.868 29.1501 118.875 29.137 118.882 29.1247C119.004 29.0845 119.122 29.0313 119.237 28.9665C119.317 28.9213 119.394 28.8704 119.467 28.8141C119.602 28.7117 119.721 28.5945 119.826 28.4667C119.831 28.4986 119.837 28.5298 119.842 28.5617L119.843 28.5633L119.843 28.565C119.849 28.5951 119.856 28.6259 119.863 28.6559C119.867 28.6744 119.872 28.693 119.877 28.7115C119.88 28.7196 119.882 28.7277 119.884 28.7357C119.885 28.7403 119.886 28.7448 119.887 28.7494C119.896 28.7805 119.905 28.8117 119.916 28.842C119.92 28.854 119.925 28.8657 119.929 28.8777C119.932 28.8852 119.935 28.8927 119.937 28.9002C119.941 28.91 119.944 28.9201 119.948 28.9297C119.949 28.9314 119.95 28.9338 119.951 28.9354C119.96 28.9617 119.972 28.9879 119.983 29.0141L119.993 29.0362C119.994 29.0381 119.995 29.04 119.996 29.0419C119.998 29.0472 120.001 29.0525 120.004 29.0578C120.011 29.0743 120.019 29.0909 120.028 29.1075C120.043 29.1395 120.06 29.1706 120.078 29.2018C120.103 29.2441 120.129 29.2854 120.156 29.3255C120.137 29.3714 120.119 29.4181 120.101 29.4648C120.062 29.5677 120.025 29.6719 119.992 29.777C119.966 29.8565 119.943 29.936 119.921 30.0147C119.9 30.0938 119.88 30.1733 119.862 30.2532C119.857 30.2729 119.853 30.2933 119.849 30.313L119.842 30.3474C119.84 30.3556 119.838 30.3638 119.837 30.3728C119.831 30.3975 119.826 30.4224 119.822 30.4474C119.811 30.5022 119.802 30.5571 119.792 30.6121C119.779 30.6919 119.768 30.7719 119.759 30.8522C119.755 30.8858 119.751 30.9194 119.747 30.953C119.747 30.9604 119.746 30.9669 119.745 30.9743C119.739 31.0288 119.734 31.0835 119.73 31.1382L119.728 31.1742C119.724 31.2285 119.72 31.2829 119.718 31.3373C119.715 31.3992 119.712 31.4613 119.711 31.5233C119.71 31.5839 119.709 31.6446 119.709 31.706C119.709 31.7453 119.709 31.7839 119.71 31.8232C119.712 31.9543 119.901 31.951 119.912 31.8232C119.915 31.7887 119.918 31.7552 119.921 31.7208C119.922 31.7077 119.924 31.6945 119.925 31.6814C119.93 31.629 119.937 31.5765 119.943 31.5241C119.949 31.4757 119.956 31.4274 119.963 31.379C119.965 31.3659 119.967 31.3528 119.969 31.3397C119.975 31.2963 119.983 31.2537 119.99 31.2102C119.99 31.2086 119.99 31.2061 119.991 31.2045C120 31.1537 120.009 31.1029 120.019 31.0529C120.03 30.9945 120.042 30.9363 120.055 30.8783C120.058 30.8595 120.062 30.8407 120.067 30.8218C120.069 30.812 120.071 30.8021 120.074 30.7915C120.077 30.7751 120.081 30.7596 120.085 30.7432C120.088 30.7301 120.091 30.7169 120.095 30.7038C120.095 30.7014 120.096 30.6981 120.097 30.6956C120.101 30.6751 120.106 30.6554 120.111 30.6358C120.114 30.6227 120.117 30.6096 120.12 30.5973C120.129 30.562 120.138 30.5268 120.148 30.4916C120.167 30.4219 120.187 30.3523 120.207 30.2826C120.224 30.2244 120.242 30.1662 120.26 30.108C120.286 30.0294 120.312 29.9507 120.339 29.8728C120.345 29.8564 120.351 29.8392 120.357 29.8228C120.378 29.7614 120.401 29.7016 120.423 29.6409C120.614 29.8228 120.844 29.9679 121.114 30.0744C121.083 30.2364 121.056 30.3989 121.032 30.562C121.02 30.6506 121.008 30.739 120.998 30.8267C120.995 30.8538 120.992 30.8808 120.989 30.9079C120.983 30.9595 120.978 31.0103 120.974 31.0612C120.971 31.0887 120.969 31.1163 120.967 31.1439C120.962 31.1933 120.959 31.2428 120.956 31.2923L120.951 31.3734C120.95 31.3824 120.95 31.3915 120.95 31.4005C120.948 31.4243 120.947 31.448 120.946 31.4718C120.946 31.4758 120.946 31.48 120.946 31.4841C120.945 31.525 120.943 31.5652 120.942 31.6062C120.936 31.7783 120.938 31.9504 120.946 32.1224V32.1298C120.949 32.1815 120.951 32.2339 120.955 32.2855C120.958 32.3314 120.961 32.3773 120.966 32.4232C120.968 32.4453 120.97 32.4675 120.973 32.4904C120.982 32.5912 120.994 32.692 121.009 32.792C121.014 32.8256 121.018 32.8592 121.024 32.8928C121.027 32.9092 121.03 32.9256 121.032 32.9427C121.041 32.9927 121.05 33.0427 121.059 33.0927C121.073 33.1616 121.177 33.1435 121.177 33.0772C121.191 32.2421 121.231 31.3915 121.378 30.5679C121.401 30.4384 121.427 30.3105 121.456 30.1843C121.682 30.2425 121.931 30.2786 122.2 30.2933C122.187 30.6043 122.182 30.9155 122.186 31.2267C122.193 31.7487 122.229 32.2708 122.287 32.7895C122.34 33.269 122.375 33.845 122.611 34.2736C122.63 34.3089 122.698 34.3064 122.704 34.2613C122.77 33.8008 122.655 33.2968 122.615 32.8354C122.569 32.315 122.548 31.7938 122.545 31.2726C122.543 30.9481 122.55 30.6236 122.566 30.2999C122.846 30.2958 123.105 30.2696 123.343 30.2212C123.352 30.3097 123.364 30.3991 123.375 30.4876C123.431 30.9072 123.505 31.3218 123.607 31.7324C123.619 31.784 123.633 31.834 123.647 31.8848C123.652 31.8979 123.656 31.911 123.659 31.9241C123.674 31.9741 123.689 32.0249 123.706 32.0741C123.721 32.124 123.738 32.1724 123.756 32.2215C123.774 32.2748 123.793 32.3272 123.813 32.3805C123.892 32.5912 123.977 32.8001 124.056 33.0148C124.084 33.0877 124.197 33.0599 124.175 32.982C124.063 32.578 124.01 32.1494 123.928 31.7372C123.916 31.6818 123.906 31.6264 123.895 31.5708C123.884 31.5151 123.874 31.4602 123.864 31.4045C123.855 31.3569 123.847 31.3102 123.838 31.2627C123.829 31.2102 123.82 31.157 123.811 31.1045C123.772 30.8697 123.739 30.6339 123.711 30.3973C123.701 30.3098 123.692 30.2221 123.684 30.1342C123.938 30.0531 124.161 29.9425 124.355 29.8023C124.362 29.8294 124.369 29.8564 124.378 29.8835C124.378 29.8851 124.378 29.8876 124.379 29.8892C124.389 29.9245 124.4 29.9597 124.41 29.9949C124.421 30.0326 124.433 30.0703 124.445 30.108C124.46 30.158 124.477 30.208 124.494 30.2572C124.512 30.3129 124.532 30.3678 124.552 30.4219C124.568 30.4645 124.584 30.5071 124.6 30.5497C124.619 30.5981 124.638 30.6464 124.658 30.694C124.679 30.7473 124.702 30.7997 124.724 30.8521C124.794 31.0127 124.869 31.1712 124.948 31.3274C124.962 31.3569 124.977 31.3856 124.992 31.4143C125.098 31.62 125.211 31.8224 125.33 32.0248C125.405 32.1534 125.598 32.0396 125.529 31.9084C125.496 31.8455 125.463 31.7821 125.431 31.7183C125.403 31.6614 125.375 31.604 125.348 31.5462C125.338 31.5265 125.329 31.5068 125.32 31.4871C125.295 31.4355 125.272 31.3831 125.249 31.3306C125.135 31.0741 125.032 30.8127 124.941 30.5472C124.914 30.4722 124.889 30.3968 124.864 30.321C124.847 30.267 124.83 30.2112 124.813 30.1563C124.801 30.1178 124.79 30.079 124.779 30.0399C124.766 29.9957 124.754 29.9506 124.741 29.9056C124.729 29.8613 124.717 29.817 124.705 29.772C124.686 29.6958 124.666 29.6196 124.648 29.5425C124.668 29.5212 124.687 29.4999 124.705 29.4778C124.715 29.4663 124.725 29.4548 124.735 29.4425C124.744 29.4316 124.751 29.4194 124.76 29.4083C124.778 29.3858 124.795 29.3628 124.811 29.3395C124.819 29.3282 124.828 29.318 124.836 29.3065L124.838 29.3041C124.842 29.2975 124.847 29.291 124.851 29.2836C124.871 29.2557 124.889 29.2262 124.906 29.1967C125.042 28.9659 125.123 28.7191 125.166 28.4683C125.166 28.4688 125.166 28.4693 125.167 28.4699C125.252 28.5764 125.347 28.6752 125.45 28.7649C125.544 28.845 125.645 28.9166 125.752 28.9788C125.87 29.0473 125.995 29.1033 126.125 29.1459C126.238 29.3547 126.336 29.5695 126.418 29.7868C126.599 30.2637 126.702 30.7538 126.712 31.2168C126.733 32.142 126.38 32.964 125.529 33.3811C125.218 33.5335 124.92 33.7085 124.635 33.9047C124.453 34.0286 124.277 34.1606 124.108 34.3005ZM131.798 32.3239C131.798 34.3972 130.116 36.0788 128.042 36.0788C126.705 36.0788 125.531 35.3798 124.866 34.3276C125.143 34.133 125.435 33.9604 125.739 33.8113C126.444 33.4655 126.92 32.8549 127.105 32.0691C127.626 33.0336 128.206 33.6638 128.492 33.5319C128.827 33.3778 128.635 32.2437 128.063 30.998C127.682 30.1687 127.08 29.5672 126.72 29.2582C126.718 29.253 126.715 29.2479 126.713 29.2426C126.863 29.2441 127.013 29.2312 127.161 29.2041C127.474 29.9982 127.956 30.6931 128.553 31.1594C129.306 31.7461 130.186 31.9101 131.032 31.6199C131.248 31.5458 131.468 31.4835 131.691 31.4331C131.762 31.7247 131.798 32.0238 131.798 32.3239ZM134.927 30.9324C134.927 30.9324 133.724 30.6341 132.193 30.8529C131.976 30.8835 131.761 30.924 131.548 30.9742C131.321 31.027 131.097 31.0912 130.876 31.1668C129.475 31.6478 128.237 30.5669 127.63 29.0812C127.871 28.9976 128.12 28.8812 128.378 28.7321C128.447 28.6922 128.516 28.6507 128.583 28.6075C128.66 28.5585 128.735 28.5072 128.808 28.4535C128.852 28.529 128.896 28.6036 128.943 28.6772C129.225 29.123 129.561 29.5205 129.946 29.8942C130.04 29.9859 130.172 29.8499 130.088 29.7516C129.846 29.4672 129.625 29.1558 129.425 28.8313C129.306 28.6349 129.194 28.434 129.089 28.2289C129.142 28.1831 129.193 28.1355 129.242 28.0863C129.404 27.9241 129.539 27.7544 129.643 27.5766C129.754 27.7434 129.869 27.9071 129.989 28.0675C130.135 28.2633 130.289 28.4533 130.45 28.637C130.782 29.0156 131.143 29.359 131.55 29.6614C131.63 29.7228 131.713 29.7811 131.798 29.8384C131.855 29.877 131.916 29.7909 131.87 29.7434C131.289 29.1435 130.716 28.5141 130.238 27.8274C130.089 27.6152 129.954 27.398 129.827 27.1776C129.894 26.9792 129.928 26.7735 129.93 26.5605C129.931 26.4443 129.922 26.3283 129.902 26.2138C130.33 26.7428 130.788 27.2463 131.275 27.7217C131.649 28.0864 132.043 28.4297 132.451 28.7559C132.827 29.0575 133.259 29.4402 133.729 29.5762C133.768 29.5869 133.814 29.5377 133.787 29.5017C133.507 29.1296 133.07 28.8535 132.715 28.5559C132.315 28.2208 131.932 27.8667 131.561 27.5004C131.051 26.9988 130.574 26.4657 130.131 25.904C130.268 25.9336 130.409 25.95 130.554 25.95C130.714 25.95 130.868 25.9311 131.019 25.895C131.206 26.0543 131.398 26.2087 131.593 26.3581C131.929 26.6154 132.274 26.8563 132.636 27.0751C132.693 27.109 132.75 27.1418 132.807 27.1735C133.15 27.3603 133.505 27.5004 133.862 27.6644C133.933 27.6963 133.992 27.5963 133.923 27.557C133.557 27.3505 133.217 27.0842 132.867 26.8514C132.688 26.7323 132.511 26.6102 132.336 26.4851C132.143 26.3475 131.953 26.2048 131.767 26.0573C131.643 25.96 131.521 25.86 131.402 25.7574C131.581 25.6713 131.753 25.5574 131.917 25.4148C131.957 25.3806 131.996 25.3451 132.034 25.3083C132.049 25.3173 132.065 25.3255 132.081 25.3337C132.265 25.4302 132.454 25.5186 132.646 25.5984C133.104 25.7902 133.575 25.9368 134.062 26.0631C134.206 26.1008 134.262 25.8845 134.121 25.8402C133.579 25.673 133.043 25.4526 132.528 25.1879C132.442 25.1434 132.356 25.0977 132.272 25.051C132.339 24.9711 132.402 24.8882 132.462 24.8027C132.549 24.6802 132.63 24.5528 132.705 24.4224C132.862 24.1504 132.984 23.8865 133.07 23.6333C133.13 23.6587 133.19 23.6841 133.249 23.7112C133.549 23.9726 133.964 24.2791 134.469 24.5151C135.137 25.1551 135.469 25.9852 135.162 26.8818C135.05 27.2088 134.963 27.5435 134.9 27.8832C134.859 28.0994 134.828 28.3173 134.807 28.5363C134.671 29.9023 134.927 30.9324 134.927 30.9324ZM138.847 27.0119C137.901 27.9576 136.577 28.2936 135.363 28.0191C135.421 27.6858 135.505 27.3575 135.614 27.0374C135.869 26.2949 135.773 25.5254 135.349 24.8387C136.399 25.1534 137.254 25.1886 137.364 24.8927C137.493 24.5469 136.554 23.8815 135.268 23.4046C134.474 23.1103 133.684 23.0891 133.197 23.1161C133.217 22.9784 133.226 22.8432 133.223 22.7121C134.047 23.0947 134.933 23.2701 135.73 23.1718C136.677 23.0546 137.415 22.5482 137.808 21.7451C137.909 21.5399 138.02 21.3402 138.142 21.1468C138.399 21.3026 138.635 21.4886 138.847 21.7008C140.313 23.1677 140.313 25.5459 138.847 27.0119Z" fill="#FE9002"/>
<path d="M242.727 17.6743H154.408C153.841 17.6743 153.381 17.9258 153.381 18.236C153.381 18.5461 153.841 18.7976 154.408 18.7976H242.727C243.295 18.7976 243.754 18.5461 243.754 18.236C243.754 17.9258 243.295 17.6743 242.727 17.6743Z" fill="#FE9002"/>
<path d="M89.5945 17.6743H1.27502C0.707837 17.6743 0.248047 17.9258 0.248047 18.236C0.248047 18.5461 0.707837 18.7976 1.27502 18.7976H89.5945C90.1617 18.7976 90.6215 18.5461 90.6215 18.236C90.6215 17.9258 90.1617 17.6743 89.5945 17.6743Z" fill="#FE9002"/>
</svg>
