<svg width="35" height="35" viewBox="0 0 35 35" fill="none" xmlns="http://www.w3.org/2000/svg">
<circle cx="17.5" cy="17.5" r="17.5" fill="white"/>
<path d="M18.3798 14.0043C18.4426 14.0043 18.4971 13.9623 18.4971 13.8953C18.4971 13.8198 18.4678 13.7652 18.4217 13.7106C18.4175 13.6267 18.2079 13.4378 18.1241 13.4336C18.0611 13.4547 17.9941 13.5679 17.9941 13.6349C17.9941 13.7777 18.2372 14.0043 18.3798 14.0043Z" fill="white"/>
<path d="M18.4425 14.4611C18.7024 14.4611 19.0882 14.331 19.0882 14.0164C19.0882 13.9156 18.8785 13.7183 18.7822 13.7183C18.7443 13.7183 18.736 13.8233 18.7277 13.8568C18.6689 14.0666 18.4762 14.1506 18.2582 14.1506C18.2245 14.1506 18.1868 14.1506 18.1533 14.1463C17.8892 14.117 17.4532 13.7896 17.2856 13.6722C17.2813 13.668 17.2813 13.668 17.2771 13.668C17.2645 13.668 17.2477 13.6848 17.2603 13.6973C17.6796 14.1925 18.1281 14.4611 18.4425 14.4611Z" fill="white"/>
<path d="M16.7328 17.3865C17.194 17.3865 17.6133 17.1348 17.697 16.6858C17.718 16.69 17.7389 16.69 17.7599 16.69C18.4139 16.69 17.8396 15.2045 18.4432 15.0786C18.4558 15.0744 18.4684 15.0744 18.4769 15.0744C18.9127 15.0744 19.3905 16.7235 18.2127 16.8662C18.0156 16.8915 18.1875 17.1055 18.4055 17.143C18.4348 17.1473 18.4684 17.1515 18.4977 17.1515C18.8834 17.1515 19.2355 16.7151 19.1601 15.9514C19.0721 15.0114 18.6822 14.5959 18.3468 14.5959C18.0198 14.5959 17.7431 14.9905 17.8438 15.6744C17.915 16.1486 17.8564 16.3501 17.7012 16.3626C17.6593 16.1024 17.5169 15.8423 17.3155 15.6829C18.0156 15.0491 17.3407 14.0001 16.7412 14.0001C16.5064 13.9959 16.0831 14.2058 16.1501 14.6254C16.1628 14.6967 16.2968 14.8897 16.3724 14.8897C16.4017 14.8897 16.4142 14.8604 16.4142 14.8351C16.4142 14.5708 16.67 14.3947 16.9299 14.3947C17.5881 14.3947 17.3407 15.3472 16.7119 15.4813C16.6574 15.4939 16.6029 15.4982 16.5525 15.4982C16.4982 15.4982 16.4478 15.4939 16.3891 15.4939C16.3724 15.4939 16.364 15.5318 16.364 15.5444C16.3891 15.7835 16.5485 15.9514 16.6448 15.9514C16.6993 15.9514 16.7663 15.9179 16.8166 15.9053C16.8796 15.8884 16.9382 15.88 16.9971 15.88C17.3743 15.88 17.5461 16.2535 17.2945 16.6227C17.1144 16.8871 16.8084 16.9963 16.5024 16.9963C15.4375 16.9963 15.2446 16.1277 15.5381 15.6451C15.6513 15.452 15.8608 15.343 16.0411 15.343C16.0914 15.343 16.1418 15.3512 16.1837 15.3681C16.2047 15.3723 16.2214 15.3891 16.2423 15.3891C16.2676 15.3891 16.2717 15.3681 16.2717 15.3512C16.2717 15.2842 16.2172 15.2127 16.1837 15.1541C16.0957 15.0156 15.9657 14.9359 15.7939 14.9359C15.3662 14.9359 15.123 15.4688 15.123 15.8338C15.123 16.648 15.928 17.3865 16.7328 17.3865Z" fill="white"/>
<path d="M7.19727 13.4942C7.42246 13.5709 7.62677 13.6612 7.81008 13.7604C7.7605 12.8942 7.67184 12.2491 7.5787 11.7812C7.40744 12.3348 7.2784 12.9061 7.19727 13.4942Z" fill="url(#paint0_radial_1737_38005)"/>
<path d="M4.90039 15.0312C4.90039 15.5741 4.93345 16.1095 4.99654 16.6343C5.25642 18.7878 6.03162 20.7788 7.19445 22.4767C7.23951 22.5052 7.28307 22.5323 7.32813 22.5594C7.51144 22.6707 7.69471 22.7713 7.87496 22.8601C7.92007 22.8827 7.96363 22.9051 8.00869 22.9263C8.03124 22.9368 8.05375 22.9472 8.0763 22.9577C8.16794 22.9998 8.25957 23.0405 8.35121 23.0795C8.41732 23.1081 8.48208 23.1338 8.54652 23.1594L8.68623 23.2135C9.06933 23.3579 9.4329 23.4646 9.75587 23.5412C9.84002 23.5624 9.92266 23.5818 10.0008 23.5968C10.0413 23.606 10.0789 23.6135 10.1166 23.621C10.3043 23.6602 10.4725 23.6872 10.6107 23.7068C10.8961 23.7474 11.0659 23.7549 11.0659 23.7549C10.8602 23.594 10.6693 23.4271 10.492 23.2585C10.4425 23.2135 10.3944 23.1654 10.3478 23.1173C10.3358 23.1067 10.3238 23.0946 10.3148 23.0842C10.2727 23.0436 10.2321 22.9998 10.1916 22.9577C10.175 22.9398 10.1585 22.9233 10.1437 22.9068C10.0954 22.8556 10.0505 22.8045 10.0053 22.7533C9.95437 22.6962 9.90462 22.6391 9.85805 22.5818C9.80847 22.5248 9.7619 22.4661 9.71834 22.409C9.67177 22.3502 9.62817 22.2932 9.58612 22.236C9.54257 22.1789 9.50051 22.1201 9.46143 22.0631C9.41938 22.0045 9.3803 21.9457 9.34277 21.8886C9.30369 21.8315 9.26628 21.7743 9.2316 21.7172C9.19553 21.6599 9.15946 21.6014 9.12641 21.5443C9.05733 21.4298 8.99423 21.3157 8.9341 21.2029C8.86502 21.0751 8.80042 20.9488 8.74184 20.8239C8.66987 20.6734 8.6036 20.5245 8.54351 20.3803C8.44435 20.1472 8.36036 19.9231 8.28514 19.7125C8.24907 19.6134 8.21601 19.5186 8.18597 19.4267C8.17095 19.3861 8.12589 19.2523 8.11685 19.2252C8.10333 19.1831 8.08848 19.141 8.07496 19.1005C8.03421 18.9787 7.99517 18.8644 7.9576 18.7592C7.91856 18.6494 7.86295 18.5366 7.79237 18.4223C7.77433 18.3907 7.75479 18.359 7.73375 18.3276C7.71274 18.2945 7.69019 18.2599 7.66617 18.2269C7.63462 18.1831 7.60307 18.141 7.57002 18.0975C7.54596 18.0659 7.5206 18.0327 7.49491 18.0013C7.3747 17.8567 7.24252 17.7125 7.10277 17.5725L7.01867 17.4884C7.01867 17.4884 6.87595 17.3516 6.84741 17.3261C6.73021 17.2163 6.61151 17.1109 6.49435 17.0118C6.45828 16.9817 6.33209 16.8749 6.30506 16.8524C6.22845 16.789 6.15497 16.7305 6.08422 16.6749C6.02112 16.6238 5.95953 16.5771 5.90242 16.5335C5.62902 16.326 5.4427 16.1982 5.4427 16.1982C5.51484 16.2117 5.58396 16.2252 5.65153 16.2403C5.80928 16.2732 5.95652 16.3095 6.09623 16.3471C6.14732 16.3606 6.1969 16.3741 6.24498 16.3877C6.28251 16.3982 6.31858 16.4086 6.35464 16.4192C6.48385 16.4584 6.60402 16.4974 6.71519 16.5366C6.76343 16.5546 6.80984 16.571 6.8549 16.5877C6.90013 16.6057 6.94352 16.6222 6.98562 16.6386C7.06972 16.6734 7.14788 16.7063 7.21997 16.7381C7.52793 16.8764 7.72776 16.9982 7.82392 17.0614C7.82241 16.9456 7.82392 16.8281 7.82542 16.7125C7.82392 16.711 7.82392 16.711 7.82542 16.7095C7.81337 16.6222 7.80287 16.535 7.79538 16.4491C7.75044 15.9711 7.75781 15.523 7.77747 15.192C7.78333 15.0944 7.78935 15.0071 7.79538 14.932C7.80454 14.8386 7.81337 14.765 7.8194 14.7139C7.82542 14.6613 7.8299 14.6327 7.8299 14.6327C7.67668 14.5017 7.48889 14.3891 7.27407 14.2929C7.23951 14.2763 7.20194 14.2613 7.16587 14.2462C7.14934 14.2402 7.13432 14.2327 7.11779 14.2267C7.05922 14.2025 6.99762 14.1816 6.93453 14.1603C6.91499 14.153 6.80984 14.1199 6.77678 14.1109C6.73787 14.0973 6.69716 14.0868 6.65661 14.0763C6.65511 14.0748 6.6536 14.0748 6.6521 14.0748C6.59649 14.0597 6.54092 14.0447 6.48385 14.0312C6.45678 14.0237 6.42824 14.0176 6.39987 14.0116C6.33811 13.9981 6.27665 13.9845 6.21343 13.9724C5.93099 13.9154 5.63204 13.8718 5.32705 13.8402C5.29851 13.8385 5.27144 13.8355 5.24441 13.8327C5.14977 13.8235 5.05362 13.8161 4.95746 13.8086C4.91993 14.2116 4.90039 14.6192 4.90039 15.0312Z" fill="url(#paint1_radial_1737_38005)"/>
<path d="M14.8858 8.09783C14.0731 8.89487 13.2603 9.69338 12.4475 10.4904C12.4175 10.5205 12.3875 10.5505 12.3574 10.5791C12.4265 10.6213 12.4956 10.6664 12.5634 10.7128C12.5783 10.722 12.724 10.8228 12.7465 10.8408C12.8231 10.8949 12.8997 10.9521 12.9749 11.0091C13.2139 11.1942 13.4421 11.3895 13.6539 11.5852C13.684 11.6123 13.7141 11.6393 13.7426 11.6664C13.7831 11.704 13.9258 11.8424 13.9589 11.874C13.9904 11.907 14.1151 12.0319 14.1453 12.0619C14.1512 12.0679 14.1588 12.074 14.1647 12.08C14.5854 12.4559 14.8843 12.7821 15.0496 12.9763C15.8728 12.2093 16.6976 11.4422 17.5224 10.6754C18.3292 11.4166 19.1374 12.1595 19.9458 12.9011C21.164 11.6349 22.6859 10.5791 22.6859 10.5791C22.6558 10.5505 22.6258 10.5205 22.5959 10.4904C21.783 9.69489 20.9702 8.89923 20.1575 8.10235C19.2906 7.25421 18.4238 6.40602 17.5584 5.55637L17.5164 5.51562C16.639 6.37595 15.7632 7.23766 14.8858 8.09783Z" fill="url(#paint2_radial_1737_38005)"/>
<path d="M23.2969 24.1436C23.3092 24.1421 23.3215 24.1406 23.3338 24.1406C23.3307 24.1344 23.3263 24.1313 23.323 24.125C23.3154 24.1313 23.3061 24.1373 23.2969 24.1436Z" fill="url(#paint3_radial_1737_38005)"/>
<path d="M27.0335 10.293C26.1276 10.293 25.2983 10.4507 24.5561 10.6975C24.4361 10.7366 24.3173 10.7802 24.2016 10.8238C24.0123 10.8974 23.829 10.9757 23.6518 11.0569C23.5572 11.1004 23.4641 11.1471 23.3723 11.1936C23.2356 11.2628 23.1034 11.3351 22.9742 11.4088C22.8886 11.457 22.8059 11.5081 22.7233 11.5576C22.6422 11.6088 22.5626 11.6585 22.4844 11.7094C21.9782 12.0435 21.556 12.3878 21.2255 12.6901C21.1759 12.7365 21.1264 12.7818 21.0797 12.8254C20.9641 12.9367 20.8619 13.039 20.7733 13.1322C20.7372 13.1697 20.7043 13.2044 20.6741 13.2373C20.5509 13.3712 20.4638 13.4736 20.4142 13.5337C20.4022 13.5486 20.3691 13.5907 20.3691 13.5907C22.9006 16.2241 23.53 18.5984 23.4654 20.4032C23.461 20.528 23.4534 20.6498 23.4429 20.7701C23.3948 21.2965 23.2912 21.7687 23.1635 22.1762C23.1169 22.3266 23.0673 22.4678 23.0163 22.5988C23.0014 22.6394 22.9847 22.68 22.9697 22.7191C22.6707 23.4515 22.3432 23.8754 22.3177 23.9086H22.3192C22.3253 23.9056 22.3372 23.8981 22.3568 23.8875C22.3583 23.8875 22.3597 23.886 22.3627 23.8846C22.3703 23.88 22.4319 23.8455 22.4589 23.8289C22.4739 23.8212 22.4889 23.8109 22.5055 23.8018C22.5716 23.7627 22.6527 23.7116 22.7473 23.6484C22.7624 23.6379 22.86 23.5732 22.8931 23.5506C23.0343 23.4515 23.195 23.334 23.3693 23.1928C23.4129 23.1581 23.4564 23.1221 23.5015 23.0845C23.5225 23.0665 23.5451 23.0469 23.5676 23.0289C23.6127 22.9913 23.6592 22.9507 23.706 22.9086C23.799 22.8259 23.8936 22.7385 23.9882 22.6469C24.0363 22.6003 24.0846 22.5522 24.134 22.5025C24.1746 22.4604 24.2166 22.4183 24.2587 22.373C24.3159 22.3146 24.3698 22.2544 24.4254 22.1928C24.4735 22.1386 24.5231 22.083 24.5713 22.0258C24.5772 22.0212 24.5802 22.0153 24.5848 22.0108C24.6763 21.9008 24.7695 21.7867 24.8611 21.6664C24.8656 21.6619 24.8688 21.6557 24.8731 21.6514C24.9152 21.5942 24.9588 21.5339 25.0023 21.4739C25.0834 21.3611 25.1631 21.2423 25.2427 21.1205C25.2592 21.095 25.2742 21.0694 25.2908 21.0438C25.3524 20.9446 25.4125 20.8437 25.4696 20.74C25.4921 20.701 25.5146 20.6633 25.5356 20.6228C25.5747 20.5506 25.6603 20.3835 25.6648 20.3746C25.7009 20.3009 25.737 20.2242 25.773 20.1475C25.8091 20.0648 25.8466 19.9821 25.8812 19.8963C25.9398 19.7505 25.9925 19.6077 26.0419 19.4693C26.2568 18.8452 26.404 18.1489 26.4476 17.3803C26.3935 17.2497 26.3769 17.1023 26.407 16.9564C26.428 16.8587 26.4446 16.7578 26.4596 16.6587V16.5939C26.2808 11.5036 27.1521 10.293 27.1521 10.293H27.0335Z" fill="url(#paint4_radial_1737_38005)"/>
<path d="M12.0184 26.7086C12.7516 26.5238 13.351 26.2682 13.7581 26.0636C14.015 25.9343 14.1953 25.8259 14.2855 25.7704C13.647 25.5599 13.0325 25.2922 12.4496 24.9719C12.1116 24.9252 11.751 24.8876 11.38 24.8486C10.5176 24.7553 9.59667 24.6514 8.77344 24.3672C9.72287 25.3102 10.8166 26.1027 12.0184 26.7086Z" fill="url(#paint5_radial_1737_38005)"/>
<path d="M7.84961 10.293C7.84961 10.293 7.85877 10.305 7.87513 10.3336C7.87965 10.3409 7.88417 10.3486 7.88869 10.3576C7.89317 10.368 7.89935 10.3787 7.90522 10.3892C7.91438 10.4086 7.92639 10.4313 7.93677 10.4569C7.94124 10.4643 7.94426 10.4734 7.94877 10.4824C7.95777 10.5005 7.99233 10.5846 8.00137 10.6088C8.00283 10.6131 8.00434 10.6178 8.00735 10.6223C8.06158 10.7652 8.12606 10.9607 8.19066 11.2207C8.19966 11.2569 8.20865 11.2945 8.2192 11.3336C8.24623 11.4493 8.27326 11.5788 8.29882 11.7201C8.31234 11.7923 8.32585 11.8675 8.33937 11.9457C8.34987 12.0089 8.36054 12.075 8.37092 12.1426C8.37995 12.2058 8.38895 12.272 8.39795 12.3397C8.47606 12.9125 8.53631 13.633 8.5572 14.5292C8.5587 14.5954 8.56171 14.7699 8.56171 14.7699C8.56322 14.8511 8.56473 14.9338 8.56473 15.018C8.56925 15.4962 8.56171 16.0211 8.54217 16.5939C8.54217 16.6166 8.54368 16.6376 8.54217 16.6587C8.5572 16.7578 8.57372 16.8587 8.59477 16.9564C8.62481 17.1038 8.60979 17.2527 8.55418 17.385C8.59929 18.1518 8.74498 18.8452 8.95984 19.4693C9.00942 19.6077 9.06214 19.7505 9.12059 19.8963C9.15511 19.9821 9.19269 20.0648 9.22875 20.1475C9.26482 20.2242 9.30085 20.3009 9.33692 20.3746C9.34143 20.3835 9.40303 20.5053 9.43156 20.5566C9.44223 20.5792 9.45411 20.6016 9.46612 20.6228C9.54575 20.7686 9.62688 20.9085 9.71114 21.0438C9.72751 21.0694 9.74253 21.095 9.75906 21.1205C9.83868 21.2423 9.91831 21.3611 9.99944 21.4739C10.043 21.5339 10.0866 21.5942 10.1286 21.6514C10.1332 21.6557 10.1361 21.6619 10.1407 21.6664C10.2323 21.7867 10.3254 21.9008 10.4171 22.0108C10.4216 22.0153 10.4246 22.0212 10.4306 22.0258C10.4787 22.083 10.5283 22.1386 10.5765 22.1928C10.6319 22.2544 10.686 22.3146 10.7431 22.373C10.7851 22.4183 10.8272 22.4604 10.8678 22.5025C10.9174 22.5522 10.9654 22.6003 11.0135 22.6469C11.1082 22.7385 11.2028 22.8259 11.2959 22.9086C11.3425 22.9507 11.3891 22.9913 11.4342 23.0289C11.4568 23.0469 11.4792 23.0665 11.5003 23.0845C11.5453 23.1221 11.5889 23.1581 11.6326 23.1928C11.8069 23.334 11.9675 23.4515 12.1087 23.5506C12.1417 23.5732 12.2394 23.6379 12.2546 23.6484C12.3491 23.7116 12.4302 23.7627 12.4963 23.8018C12.5128 23.8109 12.5279 23.8212 12.5429 23.8289C12.5699 23.8455 12.6317 23.88 12.639 23.8846C12.642 23.886 12.6435 23.8875 12.645 23.8875C12.6645 23.8981 12.6766 23.9056 12.6826 23.9086H12.6841C12.6587 23.8754 12.331 23.4515 12.0321 22.7191C12.017 22.68 12.0005 22.6394 11.9855 22.5988C11.9269 22.4499 11.8713 22.2875 11.8188 22.1146C11.7001 21.7219 11.6039 21.2709 11.5588 20.7701C11.5483 20.6498 11.5408 20.528 11.5364 20.4032C11.5318 20.2663 11.5303 20.1264 11.5333 19.9836C11.5364 19.8769 11.5423 19.7686 11.5513 19.6588C11.5588 19.5249 11.5724 19.3881 11.5919 19.2481C11.6099 19.1054 11.634 18.9595 11.6625 18.8106C11.8218 17.9775 12.1449 17.0691 12.7051 16.1023C12.7472 16.0301 12.7907 15.9577 12.8358 15.8842C12.8704 15.8286 12.9049 15.7714 12.9426 15.7141C12.9981 15.6255 13.0566 15.5353 13.1197 15.4434C13.2204 15.2945 13.3256 15.1457 13.4382 14.9939C13.5494 14.8435 13.6681 14.6917 13.7928 14.5398C13.9026 14.4044 14.0152 14.2691 14.1353 14.1337C14.2856 13.9608 14.445 13.7864 14.6146 13.6104C14.5515 13.5683 14.4914 13.5187 14.4434 13.457C14.4373 13.451 14.1429 13.0796 13.6891 12.6119C13.4878 12.4314 13.2565 12.2404 12.9967 12.0463C12.956 12.0164 12.9139 11.9848 12.8719 11.9547C12.8178 11.9156 12.7607 11.875 12.7036 11.8359C12.6676 11.8118 12.6317 11.7876 12.5955 11.7621C12.4047 11.6344 12.2019 11.5081 11.987 11.3863C11.9329 11.356 11.8773 11.3261 11.8233 11.296C11.7677 11.266 11.7121 11.2374 11.655 11.2072C11.646 11.2013 11.6385 11.1968 11.6295 11.1936C11.356 11.0554 11.0647 10.9245 10.7566 10.8073C10.7551 10.8058 10.7536 10.8058 10.7506 10.8058C10.686 10.7817 10.6214 10.7577 10.5568 10.735C10.4907 10.7126 10.4246 10.69 10.3585 10.6689C10.1587 10.6058 9.95136 10.5471 9.73952 10.4975C9.66893 10.4809 9.5983 10.4659 9.52621 10.4507C9.30989 10.4073 9.08754 10.3712 8.85933 10.3441C8.63084 10.3186 8.39644 10.3019 8.15761 10.296C8.09451 10.2945 8.03141 10.293 7.96844 10.293H7.84961Z" fill="url(#paint6_radial_1737_38005)"/>
<path d="M5.04102 13.0937C5.50224 13.1283 5.91986 13.1825 6.29694 13.256C6.4502 13.2847 6.5974 13.3178 6.73862 13.3554C6.86034 12.5222 7.07063 11.7177 7.3621 10.9536C7.31252 10.8109 7.27348 10.7327 7.25842 10.7041C7.17582 10.6017 7.12787 10.4861 7.11574 10.3643C7.09921 10.2363 7.12172 10.1041 7.17884 9.97778C7.23139 9.86201 7.31553 9.77029 7.41918 9.70411C7.54089 9.62591 7.68809 9.58378 7.83835 9.5808C7.8804 9.5793 7.99458 9.5793 7.99458 9.5793C8.17484 9.5793 8.35212 9.58663 8.52489 9.59881C9.71625 9.67554 10.7694 9.99583 11.6648 10.4154C11.6963 10.2846 11.7579 10.1628 11.857 10.0665L14.3854 7.58506L16.346 5.66029L17.0145 5.00314C17.1542 4.8663 17.3345 4.79862 17.5163 4.79862C17.6966 4.79862 17.877 4.8663 18.0166 5.00163L18.0587 5.04372L20.6577 7.5897L23.0959 9.97778L23.1876 10.0665C23.2792 10.1583 23.341 10.2726 23.3739 10.3959C24.3594 9.94171 25.5282 9.60635 26.8637 9.58227C26.9194 9.5793 27.1192 9.5793 27.1612 9.5808C27.2558 9.58227 27.3475 9.6002 27.4331 9.6319C27.6014 9.69356 27.7441 9.81087 27.8208 9.97778C27.8989 10.1522 27.9124 10.3387 27.8538 10.5056V10.507C27.8282 10.5762 27.7907 10.6423 27.7411 10.7041C27.7202 10.7417 27.6615 10.865 27.5879 11.1057C27.4527 11.5403 27.2709 12.3597 27.1912 13.7584C27.4722 13.6049 27.8042 13.4772 28.1873 13.3734C28.333 13.3343 28.4848 13.2982 28.6455 13.2665C28.7867 13.2381 28.9355 13.2125 29.0902 13.19C29.4733 13.1327 29.8954 13.0921 30.3536 13.0697C29.4252 6.80321 24.113 2 17.6981 2C11.2756 2 5.95894 6.81523 5.04102 13.0937Z" fill="url(#paint7_radial_1737_38005)"/>
<path d="M12.7266 27.3619C14.1793 27.9454 15.7627 28.2656 17.4183 28.2656C18.9732 28.2656 20.462 27.9829 21.8411 27.467C20.9833 27.201 20.342 26.8642 20.016 26.6732C19.1807 26.8687 18.3107 26.9724 17.4183 26.9724H17.4108C17.2816 26.9724 17.1525 26.9695 17.0247 26.9649H17.0232C16.1203 26.9349 15.2461 26.798 14.4076 26.5664C14.2123 26.6912 13.6084 27.0521 12.7266 27.3619Z" fill="url(#paint8_radial_1737_38005)"/>
<path d="M17.1974 12.1727C17.0111 12.332 16.8323 12.49 16.6611 12.6479C16.5334 12.7651 16.4102 12.8825 16.29 12.9998C16.2509 13.0389 16.2119 13.078 16.173 13.117C15.3195 13.9653 14.6975 14.7578 14.2573 15.3849C13.7662 16.0857 13.3215 16.7291 12.9774 17.7008C12.8181 18.1474 12.2803 19.6661 12.5672 21.1671C12.6679 21.701 12.8632 22.1792 13.1172 22.6093C13.4688 23.2048 13.9344 23.7025 14.4196 24.1116C14.6044 24.2665 14.7922 24.4093 14.977 24.5385C14.977 24.537 14.977 24.537 14.9785 24.537C14.9966 24.537 15.1572 24.6332 15.3916 24.7763C15.4367 24.8033 15.5959 24.9026 15.6305 24.9237H15.6321C15.6997 24.9658 15.7702 25.0109 15.8438 25.056C15.8814 25.0785 16.1848 25.2679 16.242 25.3041C16.299 25.3386 16.3576 25.3748 16.4147 25.4109C16.625 25.5416 16.8278 25.6681 17.0036 25.7748C17.0231 25.7868 17.0427 25.7987 17.0622 25.8108C17.0727 25.8169 17.0847 25.8228 17.0952 25.8304C17.1778 25.88 17.2515 25.9252 17.3131 25.9612C17.4288 26.0288 17.5039 26.0694 17.5189 26.0694C17.5204 26.0694 17.5219 26.0679 17.5219 26.0664C17.5219 26.0664 17.8389 25.8876 17.9425 25.8275C18.4924 25.513 19.4601 24.9446 20.1119 24.4829V24.4844C20.1239 24.4755 20.1361 24.4665 20.1464 24.4588C20.2411 24.3912 20.3267 24.3267 20.4033 24.265C20.4229 24.2499 20.4409 24.2364 20.4589 24.2214H20.4605C20.477 24.2078 20.4935 24.1943 20.5085 24.1823V24.1808C20.9999 23.7792 21.4715 23.2813 21.8306 22.6754C22.0469 22.31 22.2242 21.9025 22.3368 21.4527C22.75 19.8091 22.1716 18.2692 21.8788 17.4933C21.3979 16.2195 20.7098 15.3698 19.9226 14.3997C19.0259 13.2946 18.1438 12.4825 17.4845 11.9336C17.3867 12.0133 17.2905 12.093 17.1974 12.1727Z" fill="url(#paint9_radial_1737_38005)"/>
<path d="M27.0722 23.8651C26.2399 24.4262 25.1779 24.6366 24.1397 24.7676C23.7881 24.8125 23.4396 24.8473 23.1046 24.8834C21.9403 25.0097 20.9247 25.148 20.459 25.727C20.459 25.727 20.5538 25.7917 20.7279 25.8894C20.8691 25.9706 21.0614 26.0727 21.3003 26.1826C21.7721 26.4007 22.424 26.6473 23.1977 26.7992C24.7015 26.0697 26.0431 25.0503 27.1533 23.8125C27.1264 23.8292 27.0992 23.8472 27.0722 23.8651Z" fill="url(#paint10_radial_1737_38005)"/>
<path d="M7.80825 13.7603C7.62498 13.661 7.42067 13.5708 7.19531 13.4941C7.27644 12.9061 7.40565 12.3347 7.57691 11.7812C7.67005 12.249 7.75867 12.8941 7.80825 13.7603Z" fill="#F1604D"/>
<path d="M7.79548 16.4492C7.80301 16.5349 7.81351 16.6221 7.82552 16.7094C7.82401 16.7108 7.82401 16.7108 7.82552 16.7124C7.82401 16.8282 7.82255 16.9455 7.82401 17.0612C7.7279 16.9981 7.52807 16.8763 7.22011 16.7379C7.13295 16.1815 7.08789 15.6116 7.08789 15.0311C7.08789 14.7604 7.09839 14.4942 7.11793 14.228V14.2266C7.13446 14.2326 7.14948 14.2401 7.16601 14.2461C7.20208 14.2611 7.23961 14.2762 7.27417 14.2927C7.48903 14.3889 7.67681 14.5017 7.83004 14.6326C7.83004 14.6326 7.82552 14.6611 7.81953 14.7138C7.81351 14.7649 7.80451 14.8386 7.79548 14.9318C7.78949 15.007 7.78347 15.0943 7.77744 15.192C7.75794 15.5229 7.75041 15.971 7.79548 16.4492Z" fill="#F1604D"/>
<path d="M8.73978 20.8227C8.48141 20.4106 8.25153 19.9805 8.05023 19.5339C7.82788 19.0421 7.6416 18.5308 7.49286 18.003C7.49286 18.003 7.49135 18.0015 7.49286 18C7.51842 18.0316 7.54395 18.0647 7.568 18.0962C7.60102 18.1398 7.63257 18.1819 7.66412 18.2256C7.68817 18.2586 7.71073 18.2932 7.73173 18.3263C7.75278 18.3579 7.77232 18.3895 7.79031 18.4211C7.86094 18.5354 7.9165 18.6481 7.95558 18.7579C7.99316 18.8632 8.0322 18.9775 8.07278 19.0993C8.0863 19.1399 8.10132 19.182 8.11483 19.2241C8.12383 19.2512 8.13287 19.2767 8.14186 19.3038C8.15538 19.3444 8.16889 19.385 8.18396 19.4256C8.214 19.5174 8.24705 19.6121 8.28308 19.7114C8.35823 19.9219 8.44233 20.1459 8.54149 20.379C8.60158 20.5234 8.66769 20.6723 8.73978 20.8227Z" fill="#F1604D"/>
<path d="M14.6131 13.6152C14.4433 13.7912 14.284 13.9656 14.1338 14.1385C14.0136 14.2739 13.901 14.4092 13.7913 14.5446C13.6666 14.6965 13.5479 14.8483 13.4368 14.9987C13.3241 15.1506 13.2189 15.2995 13.1183 15.4484C13.0552 15.5401 12.9966 15.6303 12.941 15.7191C12.9034 15.7762 12.8689 15.8334 12.8343 15.889C12.7893 15.9627 12.7457 16.0349 12.7036 16.1071C12.1433 17.074 11.8202 17.9823 11.661 18.8154C11.6325 18.9643 11.6084 19.1102 11.5904 19.2531C11.5709 19.3929 11.5573 19.5297 11.5498 19.6636C11.5408 19.7734 11.5348 19.8817 11.5318 19.9884C11.5288 20.1313 11.5303 20.2711 11.5348 20.408C11.5393 20.5328 11.5468 20.6546 11.5573 20.7749C11.6024 21.2757 11.6986 21.7268 11.8173 22.1193C11.8698 22.2923 11.9254 22.4547 11.984 22.6036C11.999 22.6442 12.0156 22.6848 12.0306 22.7239C12.3295 23.4562 12.657 23.8803 12.6826 23.9134H12.6811C12.6751 23.9104 12.6631 23.9029 12.6435 23.8923C12.642 23.8923 12.6405 23.8908 12.6375 23.8893C12.63 23.8848 12.621 23.8803 12.612 23.8758C12.5924 23.8638 12.5684 23.8502 12.5414 23.8337C12.5264 23.8262 12.5113 23.8157 12.4948 23.8066C12.4287 23.7675 12.3476 23.7164 12.2529 23.6532C12.2379 23.6427 12.2214 23.6322 12.2048 23.6216C12.1733 23.6006 12.1402 23.578 12.1072 23.5555C11.966 23.4562 11.8052 23.3389 11.6309 23.1976C11.5874 23.163 11.5438 23.1269 11.4988 23.0893C11.4777 23.0713 11.4552 23.0517 11.4327 23.0337C11.3876 22.9961 11.341 22.9555 11.2945 22.9134C11.2013 22.8306 11.1067 22.7434 11.012 22.6517C10.9639 22.6051 10.9159 22.557 10.8663 22.5073C10.8257 22.4652 10.7837 22.4231 10.7416 22.378C10.6845 22.3194 10.6304 22.2592 10.5748 22.1975C10.5267 22.1434 10.4772 22.0877 10.4291 22.0306C10.4231 22.0261 10.4201 22.0201 10.4156 22.0156C10.3239 21.9058 10.2308 21.7915 10.1392 21.6712C10.1346 21.6667 10.1316 21.6607 10.1272 21.6562C10.0851 21.599 10.0415 21.5389 9.99795 21.4787C9.91681 21.3659 9.83719 21.2471 9.75756 21.1253C9.74104 21.0998 9.72602 21.0742 9.70949 21.0486C9.62535 20.9133 9.54421 20.7734 9.46459 20.6276C9.45258 20.6065 9.44057 20.584 9.43007 20.5614C9.40149 20.5102 9.37446 20.4576 9.34894 20.405C9.34442 20.3974 9.3399 20.3884 9.33542 20.3794C9.29936 20.3057 9.26329 20.229 9.22726 20.1523C9.19119 20.0696 9.15362 19.9869 9.11906 19.9012C9.06048 19.7553 9.00789 19.6125 8.95835 19.4741C8.74349 18.85 8.59775 18.1568 8.55269 17.3898C8.6083 17.2575 8.62332 17.1086 8.59328 16.9612C8.57223 16.8635 8.5557 16.7627 8.54068 16.6634C8.54219 16.6424 8.54068 16.6213 8.54068 16.5988C8.56022 16.0258 8.56771 15.501 8.56323 15.0228C8.56323 14.9386 8.56173 14.8559 8.56022 14.7747V14.7355C8.55871 14.6679 8.55721 14.6002 8.5557 14.534C8.53466 13.6378 8.47457 12.9174 8.39645 12.3445C8.38746 12.2768 8.37842 12.2106 8.36942 12.1475C8.35892 12.0798 8.34838 12.0137 8.33787 11.9505C8.32436 11.8723 8.31084 11.7971 8.29729 11.7249C8.27176 11.5835 8.24473 11.4542 8.21766 11.3384C8.20716 11.2993 8.19816 11.2617 8.18913 11.2256C8.12452 10.9655 8.05992 10.77 8.00586 10.6271C8.05394 10.5173 8.10352 10.4091 8.15607 10.3008C8.39495 10.3068 8.6293 10.3234 8.85767 10.3489C9.08601 10.376 9.30835 10.4121 9.52471 10.4557C9.59681 10.4707 9.66744 10.4857 9.73802 10.5023C9.94987 10.5519 10.1572 10.6106 10.357 10.6737C10.4231 10.6948 10.4892 10.7174 10.5553 10.7399C10.6199 10.7625 10.6845 10.7865 10.7491 10.8106C10.7521 10.8106 10.7536 10.8106 10.7551 10.8121C11.0631 10.9294 11.3545 11.0602 11.628 11.1986C11.637 11.2016 11.6445 11.2061 11.6535 11.2121C11.7106 11.2422 11.7662 11.2708 11.8217 11.3008C11.8758 11.3309 11.9314 11.361 11.9855 11.3911C12.2003 11.5129 12.4031 11.6392 12.5939 11.767C12.63 11.7926 12.6661 11.8166 12.7021 11.8407C12.7592 11.8798 12.8163 11.9204 12.8704 11.9595C12.9124 11.9896 12.9545 12.0211 12.9951 12.0512C13.255 12.2452 13.4863 12.4362 13.6876 12.6167C14.1413 13.0844 14.4358 13.4558 14.4418 13.4618C14.4899 13.5235 14.55 13.5731 14.6131 13.6152Z" fill="#F1604D"/>
<path d="M22.3368 21.4528C22.2241 21.9025 22.0469 22.31 21.8305 22.6754C21.4715 23.2815 20.9998 23.7792 20.5085 24.1808V24.1823C20.4935 24.1943 20.477 24.2078 20.4604 24.2214H20.4589C20.4409 24.2364 20.4229 24.2499 20.4034 24.265C20.3267 24.3266 20.2411 24.3913 20.1464 24.459C20.1359 24.4665 20.1239 24.4755 20.1119 24.4845V24.4831C19.4599 24.9447 18.4924 25.5131 17.9425 25.8275C17.8614 25.8289 17.7803 25.8304 17.6977 25.8304H17.6811C17.5579 25.8304 17.4333 25.8275 17.3115 25.8229C17.2289 25.8199 17.1463 25.8169 17.0652 25.8109H17.0622C17.0426 25.7989 17.0231 25.7868 17.0036 25.7748C16.8278 25.6681 16.625 25.5417 16.4147 25.4109C16.3576 25.3748 16.299 25.3387 16.2419 25.3041C16.1848 25.268 16.1262 25.2319 16.0691 25.1959C16.0316 25.1718 15.9925 25.1492 15.9565 25.1252C15.9189 25.1026 15.8814 25.0786 15.8438 25.056C15.7702 25.0109 15.6995 24.9658 15.632 24.9237H15.6305C15.5959 24.9026 15.5629 24.8815 15.5313 24.862C15.4832 24.8319 15.4367 24.8033 15.3916 24.7763C15.1572 24.6334 14.9965 24.5372 14.9784 24.5372C14.9769 24.5372 14.9769 24.5372 14.9769 24.5387C14.7922 24.4093 14.6044 24.2665 14.4196 24.1116C13.9343 23.7025 13.4686 23.2048 13.1171 22.6093C12.8632 22.1792 12.6679 21.701 12.5672 21.1671C12.2803 19.6663 12.8181 18.1474 12.9774 17.7008C13.3214 16.7293 13.7661 16.0857 14.2573 15.3849C14.6975 14.7578 15.3195 13.9653 16.1728 13.1171C16.2119 13.078 16.2509 13.0389 16.29 12.9998C16.4101 12.8825 16.5334 12.7652 16.6611 12.6479C16.8323 12.49 17.0111 12.3321 17.1974 12.1727C17.2905 12.093 17.3867 12.0133 17.4843 11.9336C18.1439 12.4825 19.0257 13.2946 19.9226 14.3999C20.7098 15.3699 21.3979 16.2195 21.8786 17.4933C22.1716 18.2692 22.75 19.8091 22.3368 21.4528Z" fill="#F1604D"/>
<path d="M22.6859 10.579C22.6859 10.579 21.1641 11.6347 19.9457 12.9009C19.1374 12.1595 18.3292 11.4166 17.5224 10.6752C16.6977 11.4422 15.8729 12.2091 15.0496 12.9761C14.8843 12.7821 14.5854 12.4558 14.1647 12.0798C14.1587 12.0738 14.1512 12.0678 14.1452 12.0618C14.1152 12.0317 14.0851 12.0001 14.0536 11.9685C14.022 11.9369 13.9905 11.9069 13.9589 11.8738C13.9259 11.8422 13.8943 11.8106 13.8597 11.779C13.8207 11.7399 13.7831 11.7038 13.7426 11.6663C13.7141 11.6392 13.684 11.6121 13.6539 11.5851C13.4421 11.3895 13.2138 11.194 12.9749 11.0091C12.8998 10.9519 12.8232 10.8948 12.7465 10.8407C12.724 10.8226 12.7 10.8061 12.6759 10.791C12.6534 10.7745 12.6309 10.7579 12.6083 10.7429C12.5933 10.7324 12.5783 10.7218 12.5632 10.7128C12.4957 10.6662 12.4265 10.6211 12.3574 10.579C12.3875 10.5504 12.4175 10.5203 12.4476 10.4903C13.2603 9.69322 14.0731 8.89471 14.8858 8.09766C15.7632 7.2375 16.639 6.37579 17.5164 5.51562L17.5585 5.55621C18.4238 6.40586 19.2906 7.25405 20.1575 8.10219C20.9703 8.89923 21.783 9.69473 22.5958 10.4903C22.6258 10.5203 22.6558 10.5504 22.6859 10.579Z" fill="#F1604D"/>
<path d="M23.323 24.125C23.3261 24.1311 23.3307 24.1342 23.3338 24.1404C23.3215 24.1404 23.3092 24.1419 23.2969 24.1435C23.3061 24.1373 23.3154 24.1311 23.323 24.125Z" fill="#F1604D"/>
<path d="M26.8643 9.58167C25.5287 9.60576 24.3599 9.94112 23.3744 10.3953C23.3413 10.272 23.2797 10.1577 23.1881 10.0659L23.143 10.0223L23.0964 9.97718L20.6582 7.5891L18.0591 5.04313L18.0171 5.00103C17.8774 4.86571 17.6971 4.79802 17.5168 4.79802C17.335 4.79802 17.1547 4.86571 17.015 5.00254L16.3465 5.65969L14.386 7.58462L11.9477 9.97718L11.9026 10.0208L11.8575 10.0659C11.7584 10.1622 11.6968 10.284 11.6652 10.4148C10.7699 9.99523 9.71675 9.67491 8.52539 9.59822C10.3627 6.38457 13.7835 4.22656 17.6986 4.22656C21.6076 4.22656 25.0224 6.37854 26.8643 9.58167Z" fill="#F1604D"/>
<path d="M26.4596 16.594V16.6586C26.4446 16.7579 26.428 16.8587 26.407 16.9564C26.3769 17.1023 26.3935 17.2497 26.4475 17.3805C26.404 18.1489 26.2567 18.8452 26.0419 19.4693C25.9923 19.6077 25.9398 19.7505 25.8812 19.8964C25.8466 19.9821 25.8091 20.0648 25.773 20.1475C25.7369 20.2242 25.7009 20.3009 25.6648 20.3746C25.6603 20.3836 25.6558 20.3927 25.6513 20.4002C25.6138 20.4754 25.5747 20.5506 25.5356 20.6228C25.5146 20.6633 25.4921 20.701 25.4695 20.74C25.4125 20.8438 25.3524 20.9446 25.2908 21.0438C25.2742 21.0694 25.2592 21.095 25.2427 21.1205C25.1631 21.2423 25.0834 21.3611 25.0023 21.4739C24.9588 21.5341 24.9152 21.5942 24.8731 21.6514C24.8686 21.6559 24.8656 21.6619 24.8611 21.6664C24.7695 21.7867 24.6763 21.901 24.5847 22.0108C24.5802 22.0153 24.5772 22.0213 24.5711 22.0258C24.5231 22.0829 24.4735 22.1386 24.4254 22.1927C24.3698 22.2544 24.3157 22.3146 24.2587 22.3732C24.2166 22.4183 24.1745 22.4604 24.134 22.5025C24.0844 22.5522 24.0363 22.6003 23.9882 22.6469C23.8936 22.7386 23.799 22.8258 23.7058 22.9086C23.6592 22.9507 23.6127 22.9913 23.5676 23.0289C23.5451 23.0469 23.5225 23.0665 23.5015 23.0845C23.4564 23.1221 23.4129 23.1582 23.3693 23.1928C23.195 23.3341 23.0343 23.4515 22.893 23.5507C22.86 23.5732 22.827 23.5958 22.7954 23.6169C22.7789 23.6274 22.7624 23.6379 22.7473 23.6484C22.6527 23.7116 22.5716 23.7627 22.5055 23.8019C22.4889 23.8109 22.4739 23.8214 22.4589 23.8289C22.4319 23.8455 22.4078 23.859 22.3883 23.871C22.3793 23.8755 22.3703 23.88 22.3627 23.8845C22.3597 23.886 22.3582 23.8875 22.3567 23.8875C22.3372 23.8981 22.3252 23.9056 22.3192 23.9086H22.3177C22.3432 23.8755 22.6707 23.4515 22.9697 22.7191C22.9847 22.68 23.0012 22.6394 23.0163 22.5988C23.0673 22.4679 23.1169 22.3266 23.1635 22.1762C23.2912 21.7687 23.3948 21.2965 23.4429 20.7701C23.4534 20.6498 23.4609 20.528 23.4654 20.4032C23.53 18.5986 22.9006 16.2241 20.3691 13.5909C20.3691 13.5909 20.3752 13.5833 20.3857 13.5698C20.3932 13.5608 20.4022 13.5487 20.4142 13.5337C20.4638 13.4736 20.5509 13.3713 20.6741 13.2375C20.7042 13.2044 20.7372 13.1698 20.7733 13.1322C20.8619 13.0389 20.9641 12.9367 21.0797 12.8254C21.1263 12.7818 21.1759 12.7367 21.2255 12.6901C21.556 12.3878 21.9781 12.0434 22.4844 11.7096C22.5625 11.6585 22.6422 11.6088 22.7233 11.5577C22.8059 11.5081 22.8886 11.457 22.9742 11.4088C23.1034 11.3351 23.2356 11.263 23.3723 11.1938C23.4639 11.1471 23.5571 11.1005 23.6517 11.0569C23.829 10.9757 24.0123 10.8975 24.2016 10.8238C24.3172 10.7802 24.4359 10.7366 24.5561 10.6975C25.2983 10.4509 26.1276 10.293 27.0334 10.293H27.1521C27.1521 10.293 26.2808 11.5036 26.4596 16.594Z" fill="#F1604D"/>
<path d="M28.1874 13.3733C27.8043 13.477 27.4723 13.6048 27.1914 13.7582C27.271 12.3597 27.4528 11.5401 27.588 11.1055C27.8645 11.8258 28.0673 12.5852 28.1874 13.3733Z" fill="#F1604D"/>
<path d="M6.71439 16.5366C6.60322 16.4976 6.48301 16.4584 6.3538 16.4194C6.31778 16.4089 6.28171 16.3983 6.24413 16.3878C6.19158 15.9427 6.16602 15.49 6.16602 15.0313C6.16602 14.6749 6.18104 14.3215 6.21259 13.9727C6.27568 13.9847 6.33732 13.9982 6.39891 14.0117C6.42744 14.0178 6.45598 14.0238 6.48301 14.0313C6.54012 14.0448 6.59569 14.0599 6.6513 14.0749C6.6528 14.0749 6.65427 14.0749 6.65577 14.0764C6.63025 14.3907 6.61673 14.7095 6.61673 15.0313C6.61673 15.5411 6.64979 16.0449 6.71439 16.5366Z" fill="#F1604D"/>
<path d="M10.6123 23.706C10.4741 23.6864 10.3058 23.6594 10.118 23.6202C10.0805 23.6127 10.0429 23.6052 10.0024 23.5962C9.92424 23.5812 9.8416 23.5616 9.75746 23.5405C9.68536 23.4699 9.61473 23.3992 9.54415 23.3285C8.20705 21.9676 7.19749 20.2742 6.64615 18.3794C6.50041 17.8832 6.38627 17.3733 6.30664 16.8516C6.33367 16.8741 6.36221 16.8967 6.38924 16.9207C6.4253 16.9508 6.45987 16.9809 6.49593 17.0109C6.61309 17.1102 6.73179 17.2154 6.84895 17.3253C6.96163 17.8801 7.11339 18.42 7.30415 18.9418C7.86303 20.4863 8.74489 21.8713 9.86562 23.0127C10.1045 23.2548 10.3524 23.4864 10.6123 23.706Z" fill="#F1604D"/>
<path d="M12.4486 24.9749C13.0315 25.2952 13.6459 25.5629 14.2844 25.7734C14.1943 25.829 14.014 25.9373 13.7571 26.0666C12.9143 25.7553 12.1166 25.3448 11.3789 24.8516C11.75 24.8906 12.1105 24.9283 12.4486 24.9749Z" fill="#F1604D"/>
<path d="M7.36204 10.9567C7.07057 11.7206 6.86023 12.5252 6.73856 13.3583C6.59734 13.3207 6.4501 13.2876 6.29688 13.259C6.44859 12.247 6.72655 11.277 7.11563 10.3672C7.12768 10.489 7.17572 10.6048 7.25836 10.707C7.27338 10.7356 7.31246 10.8138 7.36204 10.9567Z" fill="#F1604D"/>
<path d="M29.0909 13.1896C28.9362 13.2122 28.7875 13.2378 28.6462 13.2663C28.4975 12.2994 28.2286 11.3745 27.8545 10.5068V10.5053C27.9131 10.3384 27.8996 10.1519 27.8215 9.97746C27.7448 9.81056 27.6021 9.69324 27.4339 9.63159C26.9246 8.67966 26.2831 7.81045 25.5349 7.04804C23.5278 5.00584 20.759 3.74414 17.6988 3.74414C14.6401 3.74414 11.8713 5.00584 9.86419 7.04804C9.13108 7.79541 8.50011 8.64657 7.99533 9.57894H7.96826C7.9247 9.57894 7.88114 9.57894 7.83909 9.58045C7.68884 9.58347 7.5416 9.6256 7.41992 9.7038C7.97278 8.59996 8.69237 7.59843 9.54272 6.73224C11.6295 4.60732 14.5139 3.29297 17.6988 3.29297C20.8853 3.29297 23.7697 4.60732 25.8564 6.73224C27.539 8.44507 28.7034 10.6858 29.0909 13.1896Z" fill="#F1604D"/>
<path d="M24.1403 24.7656C23.2704 25.3626 22.3165 25.8424 21.3009 26.1807C21.062 26.0709 20.8697 25.9687 20.7285 25.8875C21.5653 25.6469 22.3616 25.307 23.1052 24.8814C23.4402 24.8453 23.7887 24.8107 24.1403 24.7656Z" fill="#F1604D"/>
<path d="M1.55664 24.5792C1.55664 24.5792 1.98497 22.9867 6.16022 25.7259C10.3358 28.465 14.3507 25.7259 14.3507 25.7259C13.3508 24.483 9.82378 25.2671 7.73693 23.8645C5.64987 22.4617 4.02676 23.1057 4.02676 23.1057C4.779 21.9558 5.76572 22.3467 5.76572 22.3467C4.99292 21.7029 4.34029 20.375 4.34029 20.375C1.90457 22.5727 1.55664 24.5792 1.55664 24.5792Z" fill="url(#paint11_linear_1737_38005)"/>
<path d="M29.0439 22.3467C29.0439 22.3467 30.0306 21.9558 30.7831 23.1057C30.7831 23.1057 29.1597 22.4617 27.0728 23.8645C24.9858 25.2671 21.4588 24.483 20.459 25.7259C20.459 25.7259 24.4738 28.465 28.6493 25.7259C32.8246 22.9867 33.2531 24.5792 33.2531 24.5792C33.2531 24.5792 32.905 22.5727 30.4693 20.375C30.4693 20.375 29.8168 21.7029 29.0439 22.3467Z" fill="url(#paint12_linear_1737_38005)"/>
<path d="M14.8858 8.09783C14.0731 8.89487 13.2603 9.69338 12.4475 10.4904C12.4175 10.5205 12.3875 10.5505 12.3574 10.5791C12.4265 10.6213 12.5933 10.7326 12.6083 10.7431C12.631 10.7581 12.724 10.8228 12.7465 10.8408C12.8246 10.8949 12.8997 10.9521 12.9749 11.0091C13.2139 11.1942 13.4421 11.3895 13.6539 11.5852C13.684 11.6123 13.9273 11.8424 13.9589 11.874C13.9919 11.9055 14.1301 12.0424 14.1647 12.08C14.6755 12.6033 15.0045 13.0184 15.0045 13.0184C15.0195 13.0048 15.0345 12.9898 15.0496 12.9763C15.8728 12.2093 16.6976 11.4422 17.5224 10.6754C18.3292 11.4166 19.1374 12.1595 19.9458 12.9011C21.164 11.6349 22.6859 10.5791 22.6859 10.5791C22.6558 10.5505 22.6258 10.5205 22.5959 10.4904C21.783 9.69489 20.9702 8.89923 20.1575 8.10235C19.2906 7.25421 18.4238 6.40602 17.5584 5.55637L17.5164 5.51562C16.639 6.37595 15.7632 7.23766 14.8858 8.09783Z" fill="url(#paint13_linear_1737_38005)"/>
<path d="M3.48335 13.7628C2.12073 13.7748 1 13.9102 1 13.9102C1 13.9102 2.85987 14.5884 4.44634 19.0547C5.03371 20.7075 6.09285 21.7795 7.19408 22.4744C7.23915 22.503 7.28271 22.5301 7.32777 22.5572C7.51108 22.6684 7.69434 22.7691 7.8746 22.8579C7.9197 22.8805 8.05339 22.945 8.07594 22.9555C8.16757 22.9976 8.25921 23.0382 8.35084 23.0773C8.41695 23.1059 8.68587 23.2113 8.68587 23.2113C9.06897 23.3557 9.43253 23.4624 9.75551 23.539C9.83965 23.5602 10.0785 23.6113 10.1162 23.6188C10.3039 23.6579 10.4721 23.685 10.6103 23.7046C10.8958 23.7451 11.0655 23.7527 11.0655 23.7527C10.8599 23.5918 10.669 23.4249 10.4917 23.2563C10.4421 23.2098 10.3234 23.0924 10.3144 23.082C10.2708 23.0397 10.1582 22.9211 10.1433 22.9045C10.0951 22.8534 10.0501 22.8023 10.0049 22.7511C9.954 22.694 9.90426 22.6369 9.85769 22.5796C9.80961 22.5211 9.76304 22.4639 9.71798 22.4068C9.67291 22.3495 9.62781 22.2909 9.58576 22.2338C9.5422 22.1752 9.50162 22.1179 9.46107 22.0609C9.42053 22.0022 9.37994 21.9451 9.34241 21.8864C9.305 21.8293 9.26726 21.7721 9.23123 21.715C9.19517 21.6564 9.1591 21.5992 9.12604 21.5421C9.05696 21.4276 8.99387 21.3135 8.93374 21.2007C8.86466 21.0729 8.80005 20.9466 8.74148 20.8217C8.6695 20.6712 8.60323 20.524 8.54315 20.3781C8.44398 20.145 8.36 19.9209 8.28477 19.7103C8.24871 19.6112 8.12552 19.2501 8.11649 19.223C8.10297 19.1809 7.99481 18.8622 7.95724 18.757C7.9182 18.6472 7.86259 18.5344 7.792 18.4201C7.77397 18.3885 7.68983 18.2577 7.66581 18.2246C7.63426 18.1809 7.60271 18.1387 7.56966 18.0953C7.5456 18.0637 7.52024 18.0336 7.49455 18.0019C7.49455 18.0019 7.49317 18.0006 7.49455 17.9991C7.37434 17.8545 7.24216 17.7103 7.10241 17.5703C7.10241 17.5703 6.87559 17.3494 6.84705 17.3238C6.72985 17.2141 6.61115 17.1087 6.49399 17.0096C6.45792 16.9794 6.33173 16.8727 6.3047 16.8501C6.22808 16.7868 6.15461 16.7283 6.08386 16.6727C6.01941 16.6215 5.95917 16.5749 5.90205 16.5313C5.62866 16.3238 5.44234 16.196 5.44234 16.196C5.51297 16.2095 5.5836 16.223 5.65117 16.2381C5.80891 16.271 5.95615 16.3072 6.09586 16.3449C6.14695 16.3584 6.31821 16.4063 6.35428 16.417C6.48349 16.4561 6.60366 16.4952 6.71483 16.5343C6.76307 16.5524 6.94316 16.62 6.98525 16.6364C7.06935 16.6712 7.14751 16.7041 7.21961 16.7358C7.52756 16.8742 7.7274 16.996 7.82355 17.0591C7.87012 17.0892 7.89263 17.1073 7.89263 17.1073C7.8641 16.9748 7.84159 16.8426 7.82506 16.7103C7.82355 16.7088 7.82355 16.7088 7.82506 16.7073C7.8115 16.62 7.80251 16.5328 7.79501 16.4469C7.7484 15.9689 7.75744 15.5223 7.7771 15.1898C7.78297 15.0922 7.78899 15.0049 7.79501 14.9297C7.80417 14.8363 7.82954 14.6305 7.82954 14.6305C7.67631 14.4995 7.48852 14.3868 7.27371 14.2906C7.23915 14.2741 7.20157 14.2591 7.16551 14.244C7.14898 14.238 7.13396 14.2305 7.11743 14.226C7.05885 14.2017 6.89513 14.1448 6.87408 14.1387C6.84253 14.1282 6.6968 14.0846 6.65625 14.0741C6.65474 14.0726 6.65324 14.0725 6.65173 14.0725C6.59612 14.0575 6.42788 14.0154 6.3995 14.0094C6.33775 13.9959 6.27628 13.9823 6.21306 13.9701C5.93063 13.9131 5.63167 13.8695 5.32669 13.838C5.29815 13.8363 5.05325 13.8139 4.9571 13.8064C4.53105 13.7741 4.09975 13.7617 3.68538 13.7617C3.61764 13.7617 3.55019 13.7622 3.48335 13.7628Z" fill="url(#paint14_linear_1737_38005)"/>
<path d="M7.84961 10.293C7.84961 10.293 7.85877 10.305 7.87513 10.3336C7.87965 10.3409 7.88417 10.3486 7.88869 10.3576C7.89317 10.368 7.89935 10.3787 7.90522 10.3892C7.91438 10.4086 7.92639 10.4313 7.93677 10.4569C7.94124 10.4643 7.94576 10.4734 7.94877 10.4824C7.95777 10.5005 7.99233 10.5846 8.00137 10.6088C8.00283 10.6131 8.00434 10.6178 8.00735 10.6223C8.06158 10.7652 8.12606 10.9607 8.19066 11.2207C8.19966 11.2569 8.20865 11.2945 8.2192 11.3336C8.24623 11.4493 8.27326 11.5788 8.29882 11.7201C8.31234 11.7923 8.32585 11.8675 8.33937 11.9457C8.34987 12.0089 8.36054 12.075 8.37092 12.1426C8.37995 12.2058 8.38895 12.272 8.39795 12.3397C8.47606 12.9125 8.53631 13.633 8.5572 14.5292C8.5587 14.5954 8.56473 14.9338 8.56473 15.018C8.56925 15.4962 8.56171 16.0211 8.54217 16.5939C8.53285 16.8662 8.53977 17.1277 8.55467 17.3836C8.55451 17.3841 8.55435 17.3846 8.55418 17.385C8.55467 17.3929 8.5554 17.4004 8.55601 17.4083C8.57299 17.6873 8.60303 17.9569 8.64569 18.2168C8.64569 18.2171 8.64586 18.2175 8.64586 18.218C8.67272 18.3804 8.70383 18.5392 8.73961 18.6944C8.7471 18.7273 8.75508 18.7601 8.76289 18.7929C8.79155 18.9107 8.82253 19.026 8.85587 19.1395C8.86821 19.1815 8.88038 19.2235 8.89312 19.2648C8.914 19.3311 8.9747 19.5099 8.98206 19.5301C9.02098 19.6397 9.11485 19.8818 9.12059 19.8963C9.15511 19.9821 9.19269 20.0648 9.22875 20.1475C9.26482 20.2242 9.34608 20.3927 9.35043 20.4002C9.37461 20.4527 9.45261 20.6001 9.46612 20.6228C9.54424 20.7686 9.62537 20.9085 9.71114 21.0438C9.72751 21.0694 9.74253 21.095 9.75906 21.1205C9.83718 21.2423 9.9168 21.3611 9.99944 21.4739C10.043 21.5339 10.0866 21.5942 10.1286 21.6514C10.1332 21.6557 10.1361 21.6619 10.1407 21.6664C10.2308 21.7867 10.3239 21.9008 10.4171 22.0108C10.4216 22.0153 10.4246 22.0212 10.4306 22.0258C10.4787 22.083 10.5283 22.1386 10.5765 22.1928C10.6319 22.2544 10.686 22.3146 10.7431 22.373C10.7851 22.4183 10.8272 22.4604 10.8678 22.5025C10.9174 22.5522 10.9654 22.6003 11.0135 22.6469C11.1082 22.74 11.2028 22.8273 11.2959 22.9086C11.3425 22.9507 11.4792 23.0665 11.5003 23.0845C11.5453 23.1221 11.5889 23.1581 11.6326 23.1928C11.8069 23.334 11.9675 23.4515 12.1087 23.5506C12.1417 23.5732 12.2394 23.6379 12.2546 23.6484C12.3491 23.7116 12.4302 23.7627 12.4963 23.8018C12.5128 23.8109 12.5279 23.8212 12.5429 23.8289C12.5699 23.8455 12.6317 23.88 12.639 23.8846C12.642 23.886 12.6435 23.8875 12.645 23.8875C12.6645 23.8996 12.6766 23.9056 12.6826 23.9086H12.6841C12.6587 23.8754 12.331 23.4515 12.0321 22.7191C12.017 22.68 12.0005 22.6409 11.9855 22.5988C11.9269 22.4499 11.8713 22.2875 11.8188 22.1146C11.7001 21.7219 11.6039 21.2709 11.5588 20.7701C11.5483 20.6498 11.5408 20.528 11.5364 20.4032C11.5318 20.2663 11.5303 20.1264 11.5333 19.9836C11.5364 19.8769 11.5423 19.7686 11.5513 19.6588C11.5588 19.5249 11.5724 19.3881 11.5919 19.2481C11.6099 19.1054 11.634 18.9595 11.6625 18.8106C11.8218 17.9775 12.1449 17.0691 12.7051 16.1023C12.7472 16.0301 12.7907 15.9562 12.8358 15.8842C12.8689 15.827 12.9049 15.7714 12.9426 15.7141C12.9981 15.6255 13.0566 15.5353 13.1197 15.4434C13.2189 15.2945 13.3256 15.1457 13.4382 14.9939C13.5494 14.8435 13.6681 14.6917 13.7928 14.5398C13.901 14.4044 14.0152 14.2691 14.1353 14.1337C14.2856 13.9608 14.445 13.7864 14.6146 13.6104C14.6207 13.6042 14.6266 13.5969 14.6327 13.5907C14.6327 13.5907 14.3036 13.1608 13.6891 12.6119C13.4878 12.4314 13.2565 12.2404 12.9967 12.0463C12.956 12.0164 12.7607 11.875 12.7036 11.8359C12.6676 11.8118 12.6317 11.7876 12.5955 11.7621C12.4047 11.6344 12.2019 11.5081 11.987 11.3863C11.9329 11.356 11.7121 11.2374 11.655 11.2072C11.646 11.2013 11.6385 11.1968 11.6295 11.1936C11.3545 11.0539 11.0647 10.9229 10.7566 10.8073C10.7551 10.8058 10.7536 10.8058 10.7506 10.8058C10.686 10.7817 10.6214 10.7577 10.5568 10.735C10.4907 10.7126 10.4246 10.69 10.3585 10.6689C10.1587 10.6043 9.95136 10.5455 9.73952 10.4975C9.66893 10.4809 9.5983 10.4659 9.52621 10.4507C9.30989 10.4058 9.08754 10.3695 8.85933 10.3441C8.72308 10.3288 8.58439 10.3179 8.44439 10.3095C8.38309 10.3058 8.19168 10.2967 8.15761 10.296C8.09451 10.2945 7.84961 10.293 7.84961 10.293Z" fill="url(#paint15_linear_1737_38005)"/>
<path d="M27.1695 14.6314C27.1695 14.6314 27.3603 15.9006 27.1064 17.1082C27.1064 17.1082 27.8831 16.5142 29.5567 16.1969C29.5567 16.1969 27.4444 17.636 27.0418 18.7579C26.9306 19.0662 26.8104 19.454 26.6497 19.8887C26.2245 21.0345 25.5124 22.5113 23.9336 23.7536C23.9336 23.7536 28.9662 23.5205 30.5527 19.0556C32.1391 14.5893 33.999 13.9111 33.999 13.9111C33.999 13.9111 33.6941 13.8735 33.2089 13.8357C32.7216 13.7988 32.053 13.7617 31.3295 13.7617C29.7847 13.7617 27.989 13.9307 27.1695 14.6314Z" fill="url(#paint16_linear_1737_38005)"/>
<path d="M27.0335 10.293C27.0091 10.293 26.8057 10.2964 26.7289 10.2994C26.6905 10.3011 26.4671 10.3139 26.3945 10.3197C26.358 10.3229 26.1379 10.3448 26.0651 10.3541C26.0349 10.3578 25.8193 10.3883 25.7423 10.4014C25.7227 10.4047 25.4197 10.4629 25.415 10.464C25.1172 10.5274 24.8304 10.6058 24.5561 10.6975C24.4361 10.7366 24.3173 10.7802 24.2016 10.8238C24.0123 10.8958 23.829 10.9742 23.6518 11.0569C23.5572 11.1004 23.4641 11.1471 23.3723 11.1936C23.2356 11.2628 23.1034 11.3351 22.9742 11.4088C22.8886 11.457 22.8059 11.5081 22.7233 11.5576C22.6422 11.6073 22.5626 11.6585 22.4844 11.7094C21.9782 12.0435 21.556 12.3878 21.2255 12.6901C21.1744 12.7365 21.1264 12.7818 21.0797 12.8254C20.9641 12.9367 20.8619 13.039 20.7733 13.1322C20.7372 13.1697 20.7043 13.2044 20.6741 13.2373C20.5509 13.3712 20.4638 13.4736 20.4142 13.5337C20.4022 13.5486 20.3691 13.5907 20.3691 13.5907C22.9006 16.2241 23.53 18.5984 23.4654 20.4032C23.461 20.528 23.4534 20.6498 23.4429 20.7701C23.3948 21.2965 23.2912 21.7687 23.1635 22.1762C23.1169 22.3266 23.0673 22.4678 23.0163 22.5988C23.0014 22.6409 22.9847 22.68 22.9697 22.7191C22.6707 23.4515 22.3432 23.8754 22.3177 23.9086H22.3192C22.3253 23.9056 22.3372 23.8996 22.3568 23.8875C22.3583 23.8875 22.3597 23.886 22.3627 23.8846C22.3703 23.88 22.4889 23.8124 22.5055 23.8018C22.5716 23.7627 22.7789 23.6274 22.7954 23.6169C22.827 23.5958 22.86 23.5732 22.8931 23.5506C23.0343 23.4515 23.195 23.334 23.3693 23.1928C23.4129 23.1596 23.5451 23.0469 23.5676 23.0289C23.6127 22.9913 23.6592 22.9507 23.706 22.9086C23.799 22.8273 23.8936 22.74 23.9882 22.6469C24.0363 22.6003 24.0846 22.5522 24.134 22.5025C24.1746 22.4604 24.2166 22.4183 24.2587 22.373C24.3159 22.3146 24.3698 22.2544 24.4254 22.1928C24.4735 22.1386 24.5231 22.083 24.5713 22.0258C24.5772 22.0212 24.5802 22.0153 24.5848 22.0108C24.6778 21.9008 24.771 21.7867 24.8611 21.6664C24.8656 21.6619 24.8688 21.6557 24.8731 21.6514C24.9152 21.5942 24.9588 21.5339 25.0023 21.4739C25.085 21.3611 25.1646 21.2423 25.2427 21.1205C25.2592 21.095 25.2742 21.0694 25.2908 21.0438C25.3539 20.9446 25.414 20.8423 25.4725 20.7369C25.4951 20.6994 25.5161 20.6618 25.5356 20.6228C25.5747 20.5506 25.6603 20.3835 25.6648 20.3746C25.7009 20.3009 25.737 20.2242 25.773 20.1475C25.8091 20.0648 25.8923 19.8677 25.8979 19.8529C25.9405 19.7484 26.0346 19.4899 26.0419 19.4693C26.0428 19.4668 26.0876 19.3317 26.1084 19.2657C26.1219 19.2224 26.1345 19.1785 26.1474 19.1346C26.1796 19.0251 26.2094 18.9138 26.2372 18.8004C26.2464 18.7624 26.2556 18.7242 26.2641 18.6858C26.2961 18.5461 26.355 18.2242 26.3579 18.2069C26.4004 17.9455 26.43 17.6741 26.4466 17.3934C26.4468 17.3891 26.4473 17.3849 26.4476 17.3803L26.4474 17.3799C26.462 17.1251 26.4689 16.8647 26.4596 16.5939C26.2808 11.5036 27.1521 10.293 27.1521 10.293H27.0335Z" fill="url(#paint17_linear_1737_38005)"/>
<path d="M17.114 11.9941C16.925 12.1566 16.7437 12.3179 16.57 12.4791C16.4405 12.5986 16.3156 12.7185 16.1937 12.8382C16.1541 12.8782 16.1145 12.9181 16.075 12.9578C15.2094 13.8236 14.5786 14.6325 14.1321 15.2726C13.6341 15.9878 13.183 16.6446 12.834 17.6363C12.6725 18.0921 12.127 19.6422 12.418 21.1742C12.5201 21.7191 12.7182 22.2071 12.9758 22.6461C13.3324 23.254 13.8046 23.762 14.2967 24.1795C14.4841 24.3376 14.6746 24.4834 14.862 24.6152C14.862 24.6137 14.862 24.6137 14.8635 24.6137C14.8819 24.6137 15.0448 24.7119 15.2825 24.8579C15.3282 24.8855 15.4898 24.9868 15.5248 25.0083H15.5265C15.595 25.0513 16.2622 25.4688 16.3202 25.5056C16.5334 25.639 16.957 25.9015 16.9769 25.9137C16.9875 25.92 16.9997 25.926 17.0104 25.9338C17.0941 25.9844 17.1688 26.0305 17.2313 26.0673C17.3486 26.1363 17.4248 26.1778 17.44 26.1778C17.4416 26.1778 17.4431 26.1762 17.4431 26.1747C17.4431 26.1747 17.7646 25.9922 17.8697 25.9308C18.4274 25.6098 19.4088 25.0297 20.0699 24.5584V24.56C20.0821 24.5509 20.2878 24.399 20.3655 24.336C20.3853 24.3207 20.4036 24.3069 20.4219 24.2915H20.4234C20.4402 24.2777 20.4569 24.2639 20.4722 24.2516V24.2501C20.9705 23.8403 21.4488 23.3321 21.813 22.7137C22.0324 22.3407 22.2122 21.9247 22.3265 21.4657C22.7455 19.7882 22.1588 18.2165 21.8619 17.4245C21.3741 16.1244 20.6763 15.2572 19.8779 14.2671C18.9684 13.1391 18.0739 12.3103 17.4052 11.75C17.3059 11.8314 17.2084 11.9127 17.114 11.9941ZM18.6986 13.862L18.6285 13.7314C18.6331 13.7193 18.6392 13.7147 18.6453 13.7147C18.6468 13.7147 18.6483 13.7147 18.6498 13.7161C18.653 13.7176 18.6575 13.7208 18.6605 13.7254C18.6757 13.7469 18.691 13.7974 18.6986 13.862Z" fill="url(#paint18_linear_1737_38005)"/>
<path d="M23.8156 31.2903C23.7399 31.5054 23.6866 31.5657 23.5662 31.7272C22.9115 32.6099 22.1758 33.1778 20.7285 33.2139C20.7904 33.5459 21.3783 34.1619 21.815 34.2479C22.0606 34.296 22.5953 34.2496 22.8444 34.2065C23.4768 34.1016 24.4377 33.4202 24.6819 32.8268C24.7882 32.5635 25.1923 31.4693 24.6733 31.3488C24.6149 31.4227 24.5237 31.7858 24.4705 31.9096C24.3844 32.1075 24.3209 32.2021 24.1404 32.381L23.4185 32.8835C23.0455 33.0659 23.1675 32.9438 23.1228 32.9144C23.4753 32.739 23.7949 32.3657 23.9617 32.018C24.0699 31.791 24.3363 30.8429 23.9651 30.75C23.917 30.8395 23.8636 31.1595 23.8156 31.2903Z" fill="url(#paint19_linear_1737_38005)"/>
<path d="M10.7465 31.6272C11.5503 33.7732 14.983 34.8078 15.0837 32.913C14.8614 32.913 14.5564 32.9882 14.3085 33.0167C13.6009 33.0995 12.9068 32.7114 12.5433 32.361C12.4396 32.2603 12.4261 32.2318 12.3314 32.1474C12.2683 32.0889 12.1782 32.0032 12.1391 31.955C11.6149 31.2964 11.6165 30.9413 11.7485 30.2617C10.8276 30.2932 10.4626 30.8693 10.7465 31.6272ZM12.04 32.8543C11.2858 32.4572 10.8742 31.3353 11.4962 31.1849C11.5187 31.4783 11.5217 31.5368 11.6389 31.8001C11.7816 32.122 11.7621 32.0452 11.9545 32.2812C12.5433 32.9971 12.8618 32.6107 12.8512 32.9971L12.7837 33.0182C12.7641 33.0213 12.7506 33.0243 12.7401 33.0288C12.8125 33.0231 12.8005 33.0264 12.7755 33.0297C12.7489 33.0331 12.7075 33.0366 12.7401 33.0288C12.7311 33.0288 12.7221 33.0288 12.71 33.0303C12.6937 33.0315 12.677 33.0321 12.66 33.0321C12.4465 33.0321 12.1988 32.9393 12.04 32.8543Z" fill="url(#paint20_linear_1737_38005)"/>
<path d="M17.7074 19.2399C17.9106 19.1097 17.8917 19.0946 18.0948 19.2751C18.294 19.4542 18.3239 19.6196 18.4851 19.9017L19.4578 21.6337C19.5771 21.875 19.8346 22.2739 19.9985 22.4379C19.9945 22.24 18.5787 19.3294 18.3712 18.9307L17.9011 18.0884C17.8795 18.049 17.8577 17.9989 17.8171 17.9447L17.6992 17.832L17.7074 19.2399Z" fill="url(#paint21_linear_1737_38005)"/>
<path d="M17.8207 19.7767C17.7451 19.9488 18.455 21.3683 18.6147 21.6676C18.8521 22.1131 18.9 22.4056 18.9138 22.9614L18.5649 22.9597C18.5305 22.9115 18.5597 22.97 18.5202 22.8823L18.2127 21.7158C18.1335 21.5248 17.8258 20.7676 17.7158 20.6457C17.6831 20.8487 17.6763 22.7429 17.678 24.5908C17.6816 26.3148 17.69 27.9974 17.6951 28.2227C17.7005 28.486 17.783 28.7732 17.9117 29.0641C17.9341 29.1156 17.9582 29.1709 17.9857 29.2241C18.2968 29.8573 18.7918 30.4748 19.1286 30.8311L21.0675 32.5033C21.1946 32.5859 21.2343 32.6497 21.3632 32.722C21.5247 32.7528 23.0321 32.1368 23.2968 31.2147C23.4103 30.819 23.3467 30.8808 22.3531 30.2634C22.085 30.0946 21.8203 29.921 21.5094 29.7265C21.1517 29.5062 20.9197 29.5957 20.6189 29.231C20.3732 28.9299 20.1909 28.5513 20.1119 28.135C20.0533 27.8391 20.0449 27.5242 20.1015 27.206L20.4436 25.0019C20.4728 24.5374 20.3695 23.8044 20.129 23.3778C20.0671 23.2661 20.0569 23.2883 20.0036 23.161C19.8195 22.7274 19.2249 21.9463 18.9105 21.3167C18.7539 21.0052 18.5993 20.7798 18.4344 20.4753C18.2677 20.1711 18.0994 19.7734 17.8587 19.7734C17.8461 19.7734 17.8335 19.7745 17.8207 19.7767Z" fill="url(#paint22_linear_1737_38005)"/>
<path d="M17.0669 18.2709L14.8368 22.9512C14.685 23.1831 14.5494 23.5318 14.475 23.8545C14.4099 24.1313 14.3327 24.5991 14.3259 24.8961C14.3178 25.2787 14.8056 27.4785 14.9288 27.994C14.9464 28.0672 14.9626 28.1322 14.9776 28.1905C15.1483 28.8754 15.1077 28.6531 14.563 29.1996C14.1755 29.5888 12.4141 31.1188 12.2109 31.371C12.3708 31.8498 13.0862 32.3285 13.643 32.4683C13.8653 32.5224 13.9927 32.616 14.1987 32.4697L15.1998 31.6069C15.7676 31.1309 15.6971 31.1242 16.0007 30.8243C16.5237 30.309 17.2783 29.418 17.3014 28.7533C17.3516 27.2452 17.2987 25.6679 17.3001 24.1516V20.7188C17.2987 20.4651 17.4261 19.8223 17.1239 19.7435C16.8963 19.7571 16.3814 21.6005 16.2878 21.9029C16.2349 22.0764 16.1131 22.5064 16.1239 22.6637L16.082 22.855C15.9397 22.8754 15.811 22.8862 15.6795 22.8428C15.5141 22.4331 16.1699 20.9846 16.304 20.6728L16.8202 19.4467C16.9789 19.1211 17.014 19.1171 17.3001 19.2079L17.2974 17.8516C17.1646 17.9426 17.1333 18.108 17.0669 18.2709Z" fill="url(#paint23_linear_1737_38005)"/>
<path d="M18.3661 14.0043C18.4289 14.0043 18.4835 13.9623 18.4835 13.8953C18.4835 13.8198 18.4541 13.7652 18.408 13.7106C18.4038 13.6267 18.1942 13.4378 18.1104 13.4336C18.0475 13.4547 17.9805 13.5679 17.9805 13.6349C17.9805 13.7777 18.2235 14.0043 18.3661 14.0043Z" fill="white"/>
<path d="M18.4288 14.4611C18.6887 14.4611 19.0745 14.331 19.0745 14.0164C19.0745 13.9156 18.8648 13.7183 18.7685 13.7183C18.7307 13.7183 18.7224 13.8233 18.714 13.8568C18.6552 14.0666 18.4625 14.1506 18.2445 14.1506C18.2108 14.1506 18.1731 14.1506 18.1396 14.1463C17.8755 14.117 17.4395 13.7896 17.2719 13.6722C17.2677 13.668 17.2677 13.668 17.2635 13.668C17.2509 13.668 17.234 13.6848 17.2467 13.6973C17.666 14.1925 18.1144 14.4611 18.4288 14.4611Z" fill="white"/>
<path d="M16.7191 17.3865C17.1803 17.3865 17.5996 17.1348 17.6833 16.6858C17.7043 16.69 17.7252 16.69 17.7462 16.69C18.4002 16.69 17.8259 15.2045 18.4295 15.0786C18.4421 15.0744 18.4547 15.0744 18.4631 15.0744C18.899 15.0744 19.3769 16.7235 18.199 16.8662C18.0019 16.8915 18.1738 17.1055 18.3918 17.143C18.4211 17.1473 18.4547 17.1515 18.484 17.1515C18.8697 17.1515 19.2218 16.7151 19.1464 15.9514C19.0584 15.0114 18.6685 14.5959 18.333 14.5959C18.0062 14.5959 17.7294 14.9905 17.8301 15.6744C17.9013 16.1486 17.8427 16.3501 17.6875 16.3626C17.6456 16.1024 17.5032 15.8423 17.3019 15.6829C18.0019 15.0491 17.3269 14.0001 16.7275 14.0001C16.4927 13.9959 16.0694 14.2058 16.1364 14.6254C16.1491 14.6967 16.2831 14.8897 16.3587 14.8897C16.388 14.8897 16.4005 14.8604 16.4005 14.8351C16.4005 14.5708 16.6563 14.3947 16.9162 14.3947C17.5744 14.3947 17.3269 15.3472 16.6982 15.4813C16.6437 15.4939 16.5892 15.4982 16.5388 15.4982C16.4844 15.4982 16.4341 15.4939 16.3754 15.4939C16.3587 15.4939 16.3503 15.5318 16.3503 15.5444C16.3754 15.7835 16.5348 15.9514 16.6311 15.9514C16.6856 15.9514 16.7526 15.9179 16.8029 15.9053C16.8659 15.8884 16.9245 15.88 16.9834 15.88C17.3606 15.88 17.5324 16.2535 17.2808 16.6227C17.1007 16.8871 16.7946 16.9963 16.4886 16.9963C15.4238 16.9963 15.2309 16.1277 15.5244 15.6451C15.6376 15.452 15.8472 15.343 16.0274 15.343C16.0777 15.343 16.1281 15.3512 16.17 15.3681C16.191 15.3723 16.2077 15.3891 16.2286 15.3891C16.2538 15.3891 16.258 15.3681 16.258 15.3512C16.258 15.2842 16.2035 15.2127 16.17 15.1541C16.082 15.0156 15.952 14.9359 15.7802 14.9359C15.3524 14.9359 15.1094 15.4688 15.1094 15.8338C15.1094 16.648 15.9143 17.3865 16.7191 17.3865Z" fill="white"/>
<defs>
<radialGradient id="paint0_radial_1737_38005" cx="0" cy="0" r="1" gradientUnits="userSpaceOnUse" gradientTransform="translate(7.39462 12.7455) scale(1.25564 1.2569)">
<stop stop-color="#FFF33A"/>
<stop offset="0.28" stop-color="#FDC709"/>
<stop offset="0.67" stop-color="#F4913F"/>
<stop offset="0.89" stop-color="#EE683C"/>
<stop offset="1" stop-color="#EA3D39"/>
</radialGradient>
<radialGradient id="paint1_radial_1737_38005" cx="0" cy="0" r="1" gradientUnits="userSpaceOnUse" gradientTransform="translate(6.88678 18.6543) scale(7.55218 7.55974)">
<stop stop-color="#FFF33A"/>
<stop offset="0.28" stop-color="#FDC709"/>
<stop offset="0.67" stop-color="#F4913F"/>
<stop offset="0.89" stop-color="#EE683C"/>
<stop offset="1" stop-color="#EA3D39"/>
</radialGradient>
<radialGradient id="paint2_radial_1737_38005" cx="0" cy="0" r="1" gradientUnits="userSpaceOnUse" gradientTransform="translate(15.685 9.15041) scale(9.14069 9.14983)">
<stop stop-color="#FFF33A"/>
<stop offset="0.28" stop-color="#FDC709"/>
<stop offset="0.67" stop-color="#F4913F"/>
<stop offset="0.89" stop-color="#EE683C"/>
<stop offset="1" stop-color="#EA3D39"/>
</radialGradient>
<radialGradient id="paint3_radial_1737_38005" cx="0" cy="0" r="1" gradientUnits="userSpaceOnUse" gradientTransform="translate(23.3088 24.1341) scale(0.0306836 0.0307179)">
<stop stop-color="#FFF33A"/>
<stop offset="0.28" stop-color="#FDC709"/>
<stop offset="0.67" stop-color="#F4913F"/>
<stop offset="0.89" stop-color="#EE683C"/>
<stop offset="1" stop-color="#EA3D39"/>
</radialGradient>
<radialGradient id="paint4_radial_1737_38005" cx="0" cy="0" r="1" gradientUnits="userSpaceOnUse" gradientTransform="translate(22.5545 16.9263) scale(9.57387 9.58344)">
<stop stop-color="#FFF33A"/>
<stop offset="0.28" stop-color="#FDC709"/>
<stop offset="0.67" stop-color="#F4913F"/>
<stop offset="0.89" stop-color="#EE683C"/>
<stop offset="1" stop-color="#EA3D39"/>
</radialGradient>
<radialGradient id="paint5_radial_1737_38005" cx="0" cy="0" r="1" gradientUnits="userSpaceOnUse" gradientTransform="translate(10.5493 25.508) scale(4.49693 4.50143)">
<stop stop-color="#FFF33A"/>
<stop offset="0.28" stop-color="#FDC709"/>
<stop offset="0.67" stop-color="#F4913F"/>
<stop offset="0.89" stop-color="#EE683C"/>
<stop offset="1" stop-color="#EA3D39"/>
</radialGradient>
<radialGradient id="paint6_radial_1737_38005" cx="0" cy="0" r="1" gradientUnits="userSpaceOnUse" gradientTransform="translate(10.0291 16.9263) scale(9.56617 9.57574)">
<stop stop-color="#FFF33A"/>
<stop offset="0.28" stop-color="#FDC709"/>
<stop offset="0.67" stop-color="#F4913F"/>
<stop offset="0.89" stop-color="#EE683C"/>
<stop offset="1" stop-color="#EA3D39"/>
</radialGradient>
<radialGradient id="paint7_radial_1737_38005" cx="0" cy="0" r="1" gradientUnits="userSpaceOnUse" gradientTransform="translate(13.1961 7.72853) scale(20.839 20.8599)">
<stop stop-color="#FFF33A"/>
<stop offset="0.28" stop-color="#FDC709"/>
<stop offset="0.67" stop-color="#F4913F"/>
<stop offset="0.89" stop-color="#EE683C"/>
<stop offset="1" stop-color="#EA3D39"/>
</radialGradient>
<radialGradient id="paint8_radial_1737_38005" cx="0" cy="0" r="1" gradientUnits="userSpaceOnUse" gradientTransform="translate(15.6631 27.3943) scale(7.14999 7.15714)">
<stop stop-color="#FFF33A"/>
<stop offset="0.28" stop-color="#FDC709"/>
<stop offset="0.67" stop-color="#F4913F"/>
<stop offset="0.89" stop-color="#EE683C"/>
<stop offset="1" stop-color="#EA3D39"/>
</radialGradient>
<radialGradient id="paint9_radial_1737_38005" cx="0" cy="0" r="1" gradientUnits="userSpaceOnUse" gradientTransform="translate(15.7049 18.8205) scale(11.3653 11.3766)">
<stop stop-color="#FFF33A"/>
<stop offset="0.28" stop-color="#FDC709"/>
<stop offset="0.67" stop-color="#F4913F"/>
<stop offset="0.89" stop-color="#EE683C"/>
<stop offset="1" stop-color="#EA3D39"/>
</radialGradient>
<radialGradient id="paint10_radial_1737_38005" cx="0" cy="0" r="1" gradientUnits="userSpaceOnUse" gradientTransform="translate(22.6157 25.2676) scale(5.48772 5.49321)">
<stop stop-color="#FFF33A"/>
<stop offset="0.28" stop-color="#FDC709"/>
<stop offset="0.67" stop-color="#F4913F"/>
<stop offset="0.89" stop-color="#EE683C"/>
<stop offset="1" stop-color="#EA3D39"/>
</radialGradient>
<linearGradient id="paint11_linear_1737_38005" x1="7.94563" y1="25.7875" x2="8.18472" y2="6.9189" gradientUnits="userSpaceOnUse">
<stop stop-color="#F5812C"/>
<stop offset="0.83" stop-color="#FAA519"/>
<stop offset="1" stop-color="#FAA519"/>
</linearGradient>
<linearGradient id="paint12_linear_1737_38005" x1="26.8449" y1="26.027" x2="27.084" y2="7.15838" gradientUnits="userSpaceOnUse">
<stop stop-color="#F5812C"/>
<stop offset="0.83" stop-color="#FAA519"/>
<stop offset="1" stop-color="#FAA519"/>
</linearGradient>
<linearGradient id="paint13_linear_1737_38005" x1="17.3278" y1="25.9102" x2="17.5669" y2="7.04065" gradientUnits="userSpaceOnUse">
<stop stop-color="#F5812C"/>
<stop offset="0.83" stop-color="#FAA519"/>
<stop offset="1" stop-color="#FAA519"/>
</linearGradient>
<linearGradient id="paint14_linear_1737_38005" x1="5.94516" y1="25.7616" x2="6.18424" y2="6.89374" gradientUnits="userSpaceOnUse">
<stop stop-color="#F5812C"/>
<stop offset="0.83" stop-color="#FAA519"/>
<stop offset="1" stop-color="#FAA519"/>
</linearGradient>
<linearGradient id="paint15_linear_1737_38005" x1="11.0656" y1="25.8236" x2="11.3046" y2="6.95778" gradientUnits="userSpaceOnUse">
<stop stop-color="#F5812C"/>
<stop offset="0.83" stop-color="#FAA519"/>
<stop offset="1" stop-color="#FAA519"/>
</linearGradient>
<linearGradient id="paint16_linear_1737_38005" x1="28.875" y1="26.0532" x2="29.1141" y2="7.18387" gradientUnits="userSpaceOnUse">
<stop stop-color="#F5812C"/>
<stop offset="0.83" stop-color="#FAA519"/>
<stop offset="1" stop-color="#FAA519"/>
</linearGradient>
<linearGradient id="paint17_linear_1737_38005" x1="23.5831" y1="25.9822" x2="23.8222" y2="7.11494" gradientUnits="userSpaceOnUse">
<stop stop-color="#F5812C"/>
<stop offset="0.83" stop-color="#FAA519"/>
<stop offset="1" stop-color="#FAA519"/>
</linearGradient>
<linearGradient id="paint18_linear_1737_38005" x1="17.3308" y1="26.0109" x2="17.5763" y2="6.75278" gradientUnits="userSpaceOnUse">
<stop stop-color="#F5812C"/>
<stop offset="0.83" stop-color="#FAA519"/>
<stop offset="1" stop-color="#FAA519"/>
</linearGradient>
<linearGradient id="paint19_linear_1737_38005" x1="22.5144" y1="18.3727" x2="22.91" y2="36.0242" gradientUnits="userSpaceOnUse">
<stop stop-color="#F1604D"/>
<stop offset="0.04" stop-color="#C8161D"/>
<stop offset="1" stop-color="#F99F1F"/>
</linearGradient>
<linearGradient id="paint20_linear_1737_38005" x1="12.5673" y1="18.5904" x2="12.9628" y2="36.2424" gradientUnits="userSpaceOnUse">
<stop stop-color="#F1604D"/>
<stop offset="0.04" stop-color="#C8161D"/>
<stop offset="1" stop-color="#F99F1F"/>
</linearGradient>
<linearGradient id="paint21_linear_1737_38005" x1="18.7996" y1="18.4512" x2="19.1951" y2="36.1027" gradientUnits="userSpaceOnUse">
<stop stop-color="#F1604D"/>
<stop offset="0.04" stop-color="#C8161D"/>
<stop offset="1" stop-color="#F99F1F"/>
</linearGradient>
<linearGradient id="paint22_linear_1737_38005" x1="20.2662" y1="18.4198" x2="20.6618" y2="36.0713" gradientUnits="userSpaceOnUse">
<stop stop-color="#F1604D"/>
<stop offset="0.04" stop-color="#C8161D"/>
<stop offset="1" stop-color="#F99F1F"/>
</linearGradient>
<linearGradient id="paint23_linear_1737_38005" x1="14.6184" y1="18.5468" x2="15.014" y2="36.1984" gradientUnits="userSpaceOnUse">
<stop stop-color="#F1604D"/>
<stop offset="0.04" stop-color="#C8161D"/>
<stop offset="1" stop-color="#F99F1F"/>
</linearGradient>
</defs>
</svg>
